<svg width="53" height="36" viewBox="0 0 53 36" fill="none" xmlns="http://www.w3.org/2000/svg">
<path d="M8.02524 12.7808H14.7833V0H24.2165V35.8144H14.7833H8.02524L0 29.3538V19.2415L8.02524 12.7808Z" fill="#70E0C5"/>
<path d="M44.0263 23.0336H37.2682V35.8145H27.835L27.835 1.14441e-05H37.2682H44.0263L52.0515 6.46066L52.0515 16.573L44.0263 23.0336Z" fill="white"/>
<path d="M46.1345 26.3273H41.103V28.9907L48.0912 35.9999L52.1443 35.8598V25.9067L49.349 23.103L46.1345 26.3273Z" fill="#70E0C5"/>
<path d="M6.0603 9.67275H11.134V7.00925L4.08718 6.29425e-05L1.04904e-05 0.140246L1.04904e-05 10.0933L2.81875 12.897L6.0603 9.67275Z" fill="white"/>
</svg>
