<svg width="600" height="385" viewBox="0 0 600 385" fill="none" xmlns="http://www.w3.org/2000/svg">
<path d="M133.208 64.9454L21.2964 139.807L131.528 304.594L243.44 229.732L133.208 64.9454Z" fill="#F7E4CB"/>
<path d="M185.609 221.938L184.332 229.798L128.696 221.779L129.973 213.919L185.609 221.938Z" fill="#E0E0E0"/>
<path d="M157.591 193.901L165.571 195.048L156.724 249.826L148.734 248.669L157.591 193.901Z" fill="#E0E0E0"/>
<path d="M106.394 124.281C106.474 124.39 95.2626 132.041 81.3487 141.337C67.4347 150.633 56.094 158.093 56.0142 157.974C55.9344 157.854 67.1454 150.214 81.0594 140.908C94.9734 131.602 106.264 124.161 106.394 124.281Z" fill="#E0E0E0"/>
<path d="M147.507 113.948C147.587 114.067 128.936 126.675 105.855 142.115C82.775 157.555 63.9637 169.973 63.9038 169.863C63.844 169.753 82.4558 157.126 105.566 141.686C128.676 126.246 147.428 113.828 147.507 113.948Z" fill="white"/>
<path d="M155.756 126.276C155.836 126.395 137.184 139.013 114.104 154.453C91.0237 169.893 72.2123 182.311 72.1525 182.191C72.0926 182.071 90.7244 169.464 113.815 154.014C136.905 138.564 155.676 126.156 155.756 126.276Z" fill="white"/>
<path d="M164.005 138.614C164.085 138.733 145.433 151.351 122.353 166.781C99.2724 182.211 80.4611 194.649 80.4611 194.529C80.4611 194.409 99.023 181.792 122.113 166.352C145.204 150.912 163.925 138.494 164.005 138.614Z" fill="white"/>
<path d="M172.224 150.952C172.303 151.071 153.652 163.679 130.571 179.119C107.491 194.559 88.6797 206.977 88.6299 206.857C88.58 206.737 107.222 194.13 130.332 178.69C153.442 163.25 172.224 150.832 172.224 150.952Z" fill="white"/>
<path d="M507.425 175.363L413.438 238.235L506.012 376.625L600 313.754L507.425 175.363Z" fill="#F7E4CB"/>
<path d="M551.442 307.237L550.375 313.84L503.646 307.108L504.713 300.505L551.442 307.237Z" fill="white"/>
<path d="M527.903 283.688L534.616 284.656L527.175 330.657L520.472 329.689L527.903 283.688Z" fill="white"/>
<path d="M484.875 225.269C484.954 225.389 475.549 231.822 463.859 239.632C452.169 247.442 442.634 253.686 442.554 253.596C442.474 253.506 451.89 247.053 463.57 239.233C475.249 231.414 484.795 225.1 484.875 225.269Z" fill="#E0E0E0"/>
<path d="M519.435 216.542C519.515 216.662 503.865 227.274 484.525 240.231C465.185 253.187 449.356 263.62 449.277 263.501C449.197 263.381 464.846 252.768 484.186 239.802C503.526 226.835 519.325 216.422 519.435 216.542Z" fill="#E0E0E0"/>
<path d="M526.367 226.895C526.447 227.015 510.797 237.627 491.457 250.594C472.118 263.56 456.288 273.973 456.209 273.854C456.129 273.734 471.729 263.171 491.118 250.205C510.508 237.238 526.307 226.785 526.367 226.895Z" fill="#E0E0E0"/>
<path d="M533.289 237.239C533.369 237.358 517.71 247.971 498.38 260.937C479.05 273.904 463.211 284.317 463.131 284.197C463.051 284.077 478.701 273.475 498.04 260.498C517.38 247.522 533.219 237.139 533.289 237.239Z" fill="#E0E0E0"/>
<path d="M540.271 247.622C540.351 247.741 524.701 258.344 505.362 271.31C486.022 284.277 470.193 294.69 470.113 294.58C470.033 294.47 485.682 283.848 505.022 270.881C524.362 257.915 540.142 247.502 540.271 247.622Z" fill="white"/>
<path d="M358.722 71.0081L256.17 16.1582L175.405 167.163L277.958 222.013L358.722 71.0081Z" fill="#F7E4CB"/>
<path d="M260.415 174.77L253.912 176.994L237.395 131.343L243.898 129.108L260.415 174.77Z" fill="white"/>
<path d="M270.39 142.015L272.763 148.568L227.421 164.098L225.047 157.545L270.39 142.015Z" fill="white"/>
<path d="M302.606 74.6594C302.526 74.809 292.133 69.403 279.376 62.5906C266.619 55.7782 256.356 50.1229 256.436 49.9732C256.515 49.8236 266.919 55.2296 279.676 62.042C292.433 68.8544 302.686 74.4998 302.606 74.6594Z" fill="white"/>
<path d="M327.223 101.819C327.143 101.968 309.927 92.9119 288.772 81.6011C267.617 70.2904 250.541 60.9945 250.621 60.8448C250.701 60.6952 267.906 69.7418 289.061 81.0625C310.217 92.3832 327.302 101.669 327.223 101.819Z" fill="white"/>
<path d="M321.178 113.12C321.098 113.269 303.883 104.223 282.728 92.9121C261.572 81.6014 244.497 72.2955 244.576 72.1459C244.656 71.9963 261.862 81.0528 283.017 92.3636C304.172 103.674 321.258 112.97 321.178 113.12Z" fill="white"/>
<path d="M315.134 124.42C315.054 124.57 297.839 115.523 276.683 104.213C255.528 92.902 238.452 83.636 238.532 83.4565C238.612 83.2769 255.817 92.3534 276.973 103.664C298.128 114.975 315.214 124.271 315.134 124.42Z" fill="white"/>
<path d="M309.089 135.721C309.01 135.871 291.794 126.824 270.639 115.514C249.484 104.203 232.398 94.9068 232.488 94.7572C232.577 94.6076 249.773 103.654 270.928 114.965C292.083 126.276 309.169 135.572 309.089 135.721Z" fill="white"/>
<path d="M575.85 381.695C575.85 381.834 446.933 381.954 287.935 381.954C128.936 381.954 0 381.864 0 381.695C0 381.525 128.896 381.436 287.935 381.436C446.973 381.436 575.85 381.545 575.85 381.695Z" fill="#263238"/>
<path d="M31.8769 319.226C33.5632 319.348 35.2077 319.808 36.7123 320.579C38.2169 321.35 39.5507 322.417 40.6342 323.715C42.7884 326.326 44.3138 329.397 45.0927 332.691C46.7783 338.995 45.741 346.446 43.9456 352.72C37.1233 350.276 32.9042 342.995 30.9792 339.165C27.9869 333.12 26.2015 320.353 31.8469 319.216" fill="#70E0C5"/>
<path d="M53.7702 360.37C52.7457 358.781 52.1599 356.949 52.0723 355.061C51.9847 353.172 52.3984 351.295 53.2715 349.618C54.1718 347.957 55.3941 346.492 56.8669 345.308C58.3396 344.125 60.0334 343.247 61.8493 342.726C63.5149 342.207 65.4499 341.997 66.8962 342.965C67.5482 343.458 68.0559 344.117 68.3664 344.873C68.6769 345.629 68.7789 346.455 68.6616 347.264C68.3998 348.884 67.7113 350.406 66.6668 351.672C63.3454 356.171 59.3158 359.911 53.7003 360.37" fill="#70E0C5"/>
<path d="M54.5282 381.445C54.3802 381.022 54.2766 380.584 54.219 380.139C54.0395 379.201 53.8001 377.994 53.5108 376.548C52.6155 372.588 52.3663 368.509 52.7728 364.469C53.243 360.41 54.7891 356.55 57.2512 353.288C58.0034 352.313 58.8708 351.432 59.8345 350.665C60.0963 350.457 60.3694 350.264 60.6524 350.087C60.7424 350.012 60.8433 349.951 60.9516 349.907C59.6899 350.985 58.5373 352.184 57.5105 353.488C55.1783 356.753 53.7098 360.554 53.2415 364.539C52.6032 369.187 53.3912 373.446 53.85 376.508C54.0894 378.034 54.2888 379.271 54.3985 380.129C54.4771 380.563 54.5205 381.004 54.5282 381.445Z" fill="#263238"/>
<path d="M34.0712 328.832C34.1851 328.989 34.2789 329.16 34.3504 329.34C34.53 329.739 34.7694 330.238 35.0486 330.866C35.6571 332.193 36.5049 334.118 37.5322 336.502C39.5869 341.279 42.3398 347.922 45.2123 355.323C48.0849 362.724 50.5286 369.476 52.1943 374.394C53.0521 376.847 53.7203 378.842 54.1891 380.229C54.3986 380.887 54.5582 381.415 54.6878 381.824C54.759 382.008 54.8092 382.198 54.8374 382.393C54.7363 382.224 54.6559 382.043 54.5981 381.854C54.4484 381.455 54.2589 380.937 54.0096 380.288L51.905 374.503C50.1196 369.626 47.6261 362.883 44.7635 355.493C41.9009 348.102 39.1879 341.439 37.213 336.631C36.2156 334.267 35.4476 332.342 34.8791 330.936C34.6198 330.298 34.4103 329.789 34.2507 329.38C34.1758 329.203 34.1157 329.019 34.0712 328.832Z" fill="#263238"/>
<path d="M46.4192 367.501C44.3669 364.085 41.5307 361.205 38.1452 359.101C34.7597 356.998 30.9221 355.73 26.9496 355.403C24.9548 355.263 22.5011 355.602 21.6035 357.398C20.7058 359.193 21.9027 361.387 23.2791 362.844C26.2036 365.903 29.9684 368.028 34.0988 368.951C38.2292 369.874 42.5405 369.554 46.4891 368.03" fill="#70E0C5"/>
<path d="M30.0216 360.809C30.4445 360.788 30.8684 360.805 31.2884 360.859C31.7801 360.885 32.2698 360.942 32.7546 361.028C33.3231 361.138 33.9914 361.198 34.6896 361.397C35.47 361.562 36.2395 361.776 36.9936 362.036C37.8673 362.316 38.7233 362.649 39.557 363.033C41.4745 363.892 43.2881 364.966 44.963 366.235C46.6185 367.533 48.118 369.02 49.4314 370.663C49.9986 371.379 50.5216 372.128 50.9974 372.908C51.4275 373.58 51.8204 374.276 52.1743 374.992C52.474 375.575 52.7404 376.174 52.9723 376.787C53.1723 377.241 53.3422 377.708 53.4809 378.184C53.6287 378.582 53.7389 378.992 53.8101 379.411C53.7004 379.411 53.2216 377.695 51.8751 375.142C51.5084 374.456 51.1056 373.79 50.6682 373.147C50.1821 372.391 49.6561 371.662 49.0923 370.963C46.4835 367.739 43.1565 365.17 39.3774 363.462C38.5097 363.083 37.6818 362.724 36.8739 362.465C36.1322 362.194 35.3764 361.965 34.6098 361.776C31.817 361.008 30.0117 360.919 30.0216 360.809Z" fill="#263238"/>
<path d="M482.782 48.2077C479.849 48.876 478.423 52.2572 478.144 55.2495C477.864 58.2417 478.243 61.4135 476.987 64.1464C475.57 67.2185 472.189 69.4926 472.079 72.8739C472.009 74.9385 473.236 76.8635 473.176 78.9481C473.077 82.3394 469.626 84.9327 469.436 88.284C469.306 90.7277 470.932 93.0616 470.543 95.4754C470.244 97.3505 468.778 98.8267 468.159 100.622C466.933 104.213 469.396 108.153 472.598 110.167C474.392 111.295 476.41 112.018 478.512 112.284C480.614 112.551 482.748 112.355 484.767 111.711C486.785 111.067 488.639 109.99 490.198 108.556C491.757 107.121 492.984 105.363 493.793 103.405C495.569 99.096 495.18 94.2386 494.791 89.6006C493.594 75.1313 492.703 60.6422 492.117 46.1331" fill="#263238"/>
<path d="M474.264 99.2557C474.867 98.8807 475.338 98.3261 475.61 97.6698C475.898 96.8892 476.014 96.0556 475.949 95.2261C475.84 94.1263 475.596 93.0443 475.221 92.0044C474.744 90.6974 474.567 89.2998 474.703 87.915C474.952 86.359 476.069 85.0824 477.076 83.8256C477.619 83.2105 478.072 82.5222 478.423 81.7809C478.774 81.0312 478.831 80.1768 478.583 79.3871C478.064 77.7613 476.468 76.5644 475.74 74.6793C475.398 73.7461 475.342 72.7318 475.58 71.7668C475.807 70.862 476.141 69.9879 476.578 69.1635C477.42 67.6789 478.089 66.1027 478.573 64.4657C479.271 61.3039 478.942 58.2817 479.42 55.7981C479.686 53.809 480.569 51.9532 481.944 50.4919C482.333 50.0982 482.776 49.7623 483.26 49.4944C483.427 49.4075 483.605 49.3437 483.789 49.3049C483.164 49.6491 482.59 50.0788 482.083 50.5816C480.809 52.0576 480.007 53.8815 479.779 55.8181C479.605 57.141 479.511 58.4734 479.5 59.8078C479.497 61.3781 479.343 62.9446 479.041 64.4857C478.565 66.1602 477.896 67.7736 477.047 69.2932C476.298 70.8592 475.61 72.6944 476.269 74.41C476.927 76.1255 478.513 77.3125 479.121 79.1477C479.396 80.0544 479.328 81.0303 478.932 81.8906C478.543 82.7065 478.039 83.4622 477.436 84.1348C476.438 85.3915 475.351 86.5885 475.112 87.9848C474.972 89.3093 475.129 90.6483 475.57 91.9047C475.927 92.9768 476.148 94.0892 476.229 95.2161C476.278 96.084 476.124 96.9514 475.78 97.7496C475.565 98.2499 475.221 98.6839 474.782 99.0063C474.626 99.1206 474.45 99.2051 474.264 99.2557Z" fill="#455A64"/>
<path d="M466.464 122.905L457.487 148.837L419.944 150.832L413.68 164.796L452.879 168.786C454.731 169.546 456.718 169.923 458.72 169.894C460.721 169.865 462.696 169.43 464.526 168.616C466.355 167.803 468 166.626 469.361 165.159C470.723 163.691 471.773 161.963 472.448 160.078L482.911 130.874L466.464 122.905Z" fill="#B78876"/>
<path d="M544.073 367.601C544.073 367.601 516.564 280.207 515.976 277.375C515.447 274.801 525.95 211.914 527.286 195.586L490.113 196.973V197.342L474.314 198.22L488.457 376.877H505.563L503.867 317.581C514.42 345.897 529.541 374.763 529.541 374.763L544.073 367.601Z" fill="#B78876"/>
<path d="M504.565 338.856C504.565 338.317 504.356 318.987 504.356 318.987C504.146 320.144 497.803 302.21 497.952 301.123C498.032 300.555 504.565 338.856 504.565 338.856Z" fill="#A36957"/>
<path d="M497.234 292.625C497.146 292.981 497.11 293.347 497.125 293.712C497.069 294.709 497.069 295.708 497.125 296.705C497.125 297.333 497.214 298.011 497.294 298.749C497.374 299.488 497.484 300.265 497.653 301.073C498.008 302.838 498.478 304.577 499.06 306.28C500.296 309.901 501.673 313.062 502.64 315.356C503.099 316.354 503.498 317.301 503.837 318.059C503.959 318.412 504.127 318.747 504.336 319.057C504.283 318.712 504.182 318.377 504.037 318.059C503.807 317.401 503.458 316.454 503.039 315.287C502.162 312.953 500.845 309.761 499.618 306.18C499.038 304.502 498.561 302.79 498.192 301.053C498.012 300.256 497.893 299.487 497.783 298.769C497.673 298.051 497.593 297.373 497.543 296.775C497.424 295.538 497.374 294.54 497.344 293.842C497.363 293.433 497.326 293.024 497.234 292.625Z" fill="#A36957"/>
<path d="M488.138 377.785V376.179L505.662 375.411L505.712 382.044L504.635 382.114C499.818 382.393 480.148 383.211 476.937 382.243C473.336 381.166 488.138 377.785 488.138 377.785Z" fill="#455A64"/>
<path d="M505.942 381.645C505.842 381.652 505.742 381.652 505.643 381.645L504.785 381.705L501.613 381.845C498.94 381.954 495.239 382.054 491.16 382.074C487.081 382.094 483.37 382.024 480.687 381.944L477.525 381.815H476.657H476.358C476.458 381.806 476.558 381.806 476.657 381.815H477.525L480.697 381.874C483.37 381.874 487.071 381.954 491.15 381.934C495.229 381.914 498.94 381.845 501.613 381.775L504.785 381.695H505.942V381.645Z" fill="#263238"/>
<path d="M482.423 382.204C482.277 381.682 482.076 381.177 481.824 380.698C481.508 380.256 481.144 379.851 480.737 379.491C481.281 379.685 481.733 380.077 482.004 380.588C482.333 381.058 482.482 381.632 482.423 382.204Z" fill="#263238"/>
<path d="M487.589 379.58C487.589 379.58 487.3 379.311 487.041 378.912C486.781 378.513 486.622 378.164 486.672 378.134C486.722 378.104 486.961 378.393 487.22 378.792C487.48 379.191 487.639 379.55 487.589 379.58Z" fill="#263238"/>
<path d="M489.006 378.872C489.006 378.922 488.686 378.732 488.387 378.463C488.088 378.194 487.868 377.944 487.908 377.904C487.948 377.865 488.228 378.044 488.527 378.313C488.826 378.583 489.045 378.782 489.006 378.872Z" fill="#263238"/>
<path d="M489.893 377.176C489.6 377.284 489.287 377.325 488.976 377.296C488.67 377.337 488.36 377.306 488.068 377.206C488.358 377.099 488.668 377.059 488.976 377.087C489.284 377.045 489.599 377.075 489.893 377.176Z" fill="#263238"/>
<path d="M490.192 376.019C489.895 376.212 489.549 376.316 489.195 376.319C488.856 376.363 488.511 376.315 488.198 376.179C488.527 376.123 488.861 376.097 489.195 376.099C489.524 376.04 489.858 376.014 490.192 376.019Z" fill="#263238"/>
<path d="M487.001 378.054C486.628 378.124 486.246 378.124 485.874 378.054C485.471 378.005 485.073 377.919 484.687 377.795C484.447 377.729 484.216 377.635 483.998 377.516C483.866 377.437 483.766 377.313 483.719 377.167C483.701 377.083 483.707 376.997 483.737 376.917C483.767 376.837 483.82 376.768 483.889 376.718C484.165 376.584 484.467 376.513 484.774 376.51C485.081 376.508 485.385 376.573 485.664 376.702C485.942 376.831 486.189 377.02 486.385 377.255C486.582 377.491 486.724 377.767 486.801 378.064C486.821 378.163 486.821 378.265 486.801 378.363C486.688 378.003 486.513 377.665 486.283 377.366C486.017 377.067 485.671 376.852 485.285 376.748C484.844 376.605 484.364 376.641 483.949 376.847C483.779 376.977 483.849 377.186 484.038 377.306C484.242 377.416 484.456 377.506 484.677 377.575C485.052 377.699 485.435 377.795 485.824 377.865C486.572 378.024 487.001 378.024 487.001 378.054Z" fill="#263238"/>
<path d="M486.711 378.114C486.566 377.883 486.516 377.604 486.572 377.336C486.608 377.043 486.714 376.762 486.881 376.518C486.975 376.352 487.109 376.211 487.271 376.11C487.433 376.009 487.618 375.95 487.809 375.94C487.922 375.966 488.02 376.034 488.085 376.13C488.15 376.227 488.176 376.344 488.158 376.458C488.133 376.637 488.068 376.807 487.968 376.957C487.817 377.204 487.64 377.435 487.44 377.645C487.266 377.844 487.047 377.998 486.801 378.094C486.801 378.094 487.021 377.895 487.33 377.536C487.509 377.33 487.666 377.106 487.799 376.867C487.948 376.628 488.058 376.199 487.799 376.149C487.539 376.099 487.24 376.408 487.071 376.628C486.912 376.844 486.803 377.093 486.751 377.356C486.711 377.607 486.697 377.861 486.711 378.114Z" fill="#263238"/>
<path d="M505.573 376.877C505.573 376.877 505.074 376.877 504.286 376.927C503.26 377.05 502.289 377.458 501.483 378.105C500.678 378.752 500.069 379.612 499.728 380.588C499.469 381.336 499.449 381.845 499.409 381.835C499.369 381.825 499.409 381.705 499.409 381.486C499.434 381.164 499.494 380.846 499.588 380.538C499.906 379.517 500.516 378.612 501.344 377.935C502.182 377.27 503.2 376.871 504.266 376.788C504.597 376.748 504.932 376.748 505.264 376.788C505.37 376.804 505.474 376.834 505.573 376.877Z" fill="#263238"/>
<path d="M497.184 380.249C496.348 380.443 495.489 380.527 494.631 380.498C493.777 380.541 492.921 380.467 492.088 380.279C492.088 380.219 493.225 380.279 494.631 380.279C496.037 380.279 497.174 380.189 497.184 380.249Z" fill="#263238"/>
<path d="M500.596 380.219C500.596 380.219 500.506 380.458 500.386 380.717C500.266 380.977 500.207 381.216 500.147 381.206C500.087 381.196 500.057 380.937 500.197 380.628C500.336 380.318 500.556 380.169 500.596 380.219Z" fill="#263238"/>
<path d="M501.882 378.613C501.882 378.613 501.812 378.832 501.633 379.012C501.453 379.191 501.274 379.311 501.224 379.271C501.174 379.231 501.294 379.052 501.473 378.862C501.653 378.673 501.832 378.563 501.882 378.613Z" fill="#263238"/>
<path d="M503.717 377.875C503.717 377.935 503.478 377.934 503.219 378.024C502.959 378.114 502.78 378.254 502.73 378.214C502.68 378.174 502.83 377.935 503.149 377.825C503.468 377.715 503.737 377.815 503.717 377.875Z" fill="#263238"/>
<path d="M505.024 377.516C505.024 377.576 504.954 377.665 504.805 377.715C504.655 377.765 504.525 377.775 504.505 377.715C504.485 377.655 504.585 377.566 504.725 377.516C504.864 377.466 505.004 377.466 505.024 377.516Z" fill="#263238"/>
<path d="M529.192 376.239L528.533 374.773L544.203 366.903L546.966 372.888L545.968 373.396C541.689 375.621 524.085 384.418 520.753 384.857C517.073 385.385 529.192 376.239 529.192 376.239Z" fill="#455A64"/>
<path d="M547.025 372.459L546.766 372.618L545.998 373.017L543.165 374.454C540.772 375.641 537.44 377.246 533.72 378.942C529.999 380.638 526.588 382.084 524.115 383.111L521.172 384.298L520.374 384.607C520.282 384.65 520.185 384.68 520.085 384.697L520.354 384.567L521.142 384.218L524.055 382.972C526.518 381.914 529.91 380.438 533.63 378.742C537.35 377.047 540.692 375.471 543.106 374.314L545.958 372.947L546.746 372.578L547.025 372.459Z" fill="#263238"/>
<path d="M525.83 382.602C525.485 382.181 525.093 381.8 524.663 381.465C524.195 381.188 523.697 380.967 523.177 380.807C523.75 380.799 524.311 380.967 524.785 381.288C525.26 381.609 525.624 382.068 525.83 382.602Z" fill="#263238"/>
<path d="M529.431 378.094C529.431 378.094 529.052 377.975 528.653 377.715C528.254 377.456 527.965 377.207 527.995 377.157C528.025 377.107 528.374 377.276 528.773 377.536C529.172 377.795 529.461 378.044 529.431 378.094Z" fill="#263238"/>
<path d="M530.408 376.877C530.408 376.927 530.069 376.877 529.68 376.758C529.291 376.638 529.002 376.488 529.012 376.428C529.264 376.405 529.518 376.446 529.75 376.548C530.129 376.638 530.428 376.777 530.408 376.877Z" fill="#263238"/>
<path d="M530.548 374.962C530.548 375.022 530.219 375.232 529.76 375.451C529.496 375.61 529.199 375.709 528.892 375.74C528.892 375.681 529.221 375.471 529.67 375.252C529.939 375.093 530.238 374.995 530.548 374.962Z" fill="#263238"/>
<path d="M530.349 373.785C530.349 373.785 530.059 374.184 529.541 374.473C529.247 374.673 528.898 374.777 528.543 374.773C528.829 374.58 529.133 374.417 529.451 374.284C529.94 374.015 530.299 373.735 530.349 373.785Z" fill="#263238"/>
<path d="M528.304 376.957C528 377.166 527.663 377.321 527.306 377.416C526.915 377.53 526.514 377.613 526.109 377.665C525.864 377.696 525.616 377.696 525.371 377.665C525.217 377.654 525.074 377.582 524.972 377.466C524.926 377.395 524.901 377.311 524.901 377.226C524.901 377.141 524.926 377.058 524.972 376.987C525.276 376.62 525.697 376.369 526.165 376.278C526.632 376.187 527.117 376.261 527.536 376.488C527.783 376.618 528.001 376.798 528.174 377.017C528.294 377.177 528.344 377.276 528.334 377.286C528.088 377.012 527.794 376.785 527.466 376.618C527.115 376.453 526.723 376.394 526.339 376.448C526.11 376.472 525.889 376.541 525.687 376.65C525.485 376.76 525.306 376.908 525.162 377.087C525.052 377.276 525.162 377.436 525.431 377.466C525.66 377.486 525.89 377.486 526.119 377.466C526.517 377.426 526.91 377.356 527.296 377.256C527.865 377.097 528.304 376.927 528.304 376.957Z" fill="#263238"/>
<path d="M528.025 377.127C527.802 376.969 527.646 376.734 527.586 376.468C527.498 376.188 527.477 375.891 527.526 375.601C527.543 375.409 527.609 375.225 527.717 375.066C527.825 374.908 527.972 374.779 528.144 374.693C528.394 374.613 528.972 375.122 529.012 375.311C529.052 375.501 528.723 375.401 528.703 375.561C528.671 375.844 528.604 376.122 528.503 376.389C528.431 376.645 528.293 376.879 528.104 377.067C528.104 377.067 528.224 376.798 528.364 376.349C528.435 376.084 528.485 375.814 528.513 375.541C528.513 375.262 528.513 374.833 528.194 374.902C527.875 374.972 527.785 375.361 527.715 375.641C527.655 375.9 527.655 376.169 527.715 376.428C527.798 376.67 527.901 376.903 528.025 377.127Z" fill="#263238"/>
<path d="M544.731 368.26C544.731 368.26 544.253 368.429 543.574 368.838C542.687 369.368 541.965 370.135 541.49 371.052C541.028 371.978 540.831 373.014 540.921 374.045C540.981 374.843 541.17 375.301 541.131 375.321C541.066 375.222 541.016 375.115 540.981 375.002C540.882 374.697 540.812 374.383 540.772 374.065C540.629 373.002 540.813 371.922 541.299 370.967C541.786 370.012 542.551 369.227 543.494 368.718C543.777 368.562 544.074 368.435 544.382 368.339C544.494 368.296 544.612 368.269 544.731 368.26Z" fill="#263238"/>
<path d="M538.458 374.783C537.051 375.761 535.48 376.477 533.82 376.897C533.82 376.837 534.867 376.438 536.144 375.9C537.42 375.361 538.428 374.733 538.458 374.783Z" fill="#263238"/>
<path d="M541.559 373.357C541.609 373.357 541.559 373.606 541.559 373.895C541.559 374.184 541.559 374.424 541.559 374.444C541.559 374.464 541.36 374.224 541.36 373.895C541.36 373.566 541.51 373.327 541.559 373.357Z" fill="#263238"/>
<path d="M542.068 371.362C542.118 371.362 542.068 371.591 542.008 371.83C541.949 372.07 541.799 372.249 541.749 372.229C541.699 372.209 541.749 372 541.809 371.761C541.869 371.521 542.008 371.342 542.068 371.362Z" fill="#263238"/>
<path d="M543.445 369.895C543.445 369.955 543.245 370.045 543.046 370.234C542.846 370.424 542.736 370.623 542.687 370.603C542.637 370.583 542.687 370.304 542.906 370.075C543.126 369.845 543.435 369.895 543.445 369.895Z" fill="#263238"/>
<path d="M544.492 369.077C544.492 369.077 544.492 369.237 544.372 369.347C544.253 369.456 544.143 369.516 544.103 369.476C544.063 369.436 544.103 369.317 544.223 369.207C544.342 369.097 544.452 369.037 544.492 369.077Z" fill="#263238"/>
<path d="M524.873 166.063L521.96 130.455L536.922 130.724C536.922 130.724 537.61 125.468 535.405 113.958C534.049 106.896 529.351 102.567 524.075 99.9938V99.894L523.616 99.7743C519.273 97.8243 514.634 96.6141 509.891 96.1936L491.489 96.4031C491.489 96.4031 477.435 94.6077 469.686 104.672C466.693 108.532 457.407 134.953 457.407 134.953L479.5 145.586L477.435 130.934C477.435 130.934 477.854 141.556 479.211 144.898C479.959 146.773 482.203 152.598 482.203 152.598L481.914 170.172L524.873 166.063Z" fill="#4B7C4E"/>
<path d="M514.719 125.288L511.996 136.918H537.759L536.064 117.409L514.719 125.288Z" fill="#4B7C4E"/>
<path d="M537.759 136.918C536.634 136.711 535.493 136.597 534.348 136.579C532.234 136.459 529.361 136.35 526.09 136.37C522.818 136.389 519.935 136.529 517.821 136.689C516.677 136.729 515.539 136.869 514.42 137.108C515.562 137.199 516.709 137.199 517.851 137.108C519.955 137.038 522.838 136.958 526.09 136.948C529.341 136.938 532.224 136.948 534.338 136.998C535.479 137.062 536.623 137.035 537.759 136.918Z" fill="#263238"/>
<path d="M513.612 117.319C513.489 118.311 513.462 119.313 513.532 120.311C513.532 122.136 513.612 124.65 513.722 127.433C513.831 130.215 513.961 132.739 514.081 134.554C514.085 135.56 514.192 136.562 514.4 137.547C514.522 136.554 514.549 135.552 514.48 134.554C514.48 132.729 514.4 130.205 514.29 127.423C514.18 124.64 514.051 122.126 513.931 120.301C513.927 119.299 513.82 118.299 513.612 117.319Z" fill="#263238"/>
<g opacity="0.3">
<path d="M490.172 127.393C490.172 127.393 495.898 169.853 511.996 168.726C511.996 168.726 519.247 168.646 521.571 163.829V161.934L490.172 127.393Z" fill="black"/>
</g>
<g opacity="0.3">
<path d="M513.612 119.823L510.53 140.639L512.525 144.289L515.806 137.148L514.42 137.108L513.612 119.823Z" fill="black"/>
</g>
<path d="M482.113 152.618C481.922 152.307 481.775 151.971 481.675 151.62C481.425 150.972 481.096 150.024 480.677 148.837C479.678 145.745 478.856 142.598 478.214 139.412C477.573 136.224 477.167 132.994 476.997 129.747C476.937 128.5 476.917 127.493 476.937 126.754C476.911 126.394 476.935 126.031 477.007 125.677C477.086 125.677 477.146 127.213 477.356 129.667C477.636 132.884 478.093 136.084 478.722 139.252C479.46 142.963 480.348 146.284 481.026 148.668C481.345 149.775 481.615 150.722 481.834 151.5C481.971 151.86 482.065 152.235 482.113 152.618Z" fill="#263238"/>
<path d="M488.617 164.816C488.477 164.816 488.078 163.948 487.729 162.821C487.428 162.13 487.295 161.379 487.34 160.627C487.78 161.236 488.083 161.934 488.228 162.671C488.514 163.349 488.647 164.081 488.617 164.816Z" fill="#263238"/>
<path d="M490.841 164.657C490.087 162.656 490.055 160.454 490.751 158.433C490.829 159.468 490.829 160.509 490.751 161.545C490.86 162.578 490.89 163.618 490.841 164.657Z" fill="#263238"/>
<path d="M479.949 146.075C479.879 146.194 474.742 143.76 468.469 140.629C462.195 137.497 457.158 134.844 457.218 134.714C457.278 134.584 462.424 137.028 468.698 140.16C474.972 143.292 480.009 145.945 479.949 146.075Z" fill="#263238"/>
<path d="M489.006 99.8442C489.115 94.7972 489.145 89.4909 489.145 89.4909C489.145 89.4909 482.672 88.2442 481.545 79.7262C480.468 71.6072 483.48 52.5465 483.48 52.5465C492.935 48.9758 502.76 52.2174 509.233 59.8776L507.627 100.842C507.438 105.599 503.199 109.23 498.112 108.99C492.965 108.741 488.896 104.652 489.006 99.8442Z" fill="#B78876"/>
<path d="M482.981 67.777C482.972 68.0567 483.071 68.3291 483.256 68.5386C483.441 68.7481 483.7 68.8788 483.978 68.9041C484.12 68.9178 484.263 68.9025 484.398 68.8592C484.534 68.8158 484.659 68.7453 484.766 68.652C484.874 68.5587 484.961 68.4444 485.023 68.3163C485.084 68.1882 485.119 68.0488 485.126 67.9067C485.134 67.6282 485.035 67.3569 484.85 67.149C484.664 66.9412 484.406 66.8125 484.128 66.7896C483.986 66.768 483.841 66.7775 483.703 66.8172C483.565 66.8569 483.437 66.9261 483.328 67.0198C483.219 67.1136 483.131 67.2298 483.072 67.3605C483.012 67.4912 482.981 67.6333 482.981 67.777Z" fill="#263238"/>
<path d="M482.582 66.3507C482.712 66.4903 483.58 65.9019 484.727 65.9418C485.874 65.9817 486.721 66.5801 486.861 66.4405C487.001 66.3008 486.801 66.1213 486.432 65.832C485.933 65.4702 485.333 65.2717 484.717 65.2635C484.109 65.2403 483.51 65.4154 483.011 65.7622C482.642 66.0315 482.512 66.2809 482.582 66.3507Z" fill="#263238"/>
<path d="M494.86 68.5151C494.849 68.7953 494.947 69.0691 495.133 69.2791C495.318 69.4892 495.578 69.6192 495.858 69.6422C496.001 69.6639 496.147 69.6542 496.286 69.6139C496.424 69.5736 496.553 69.5036 496.662 69.4087C496.771 69.3138 496.858 69.1964 496.917 69.0645C496.977 68.9325 497.006 68.7893 497.005 68.6448C497.016 68.3655 496.918 68.093 496.732 67.8845C496.546 67.6761 496.286 67.5481 496.007 67.5276C495.865 67.5061 495.72 67.5155 495.582 67.5552C495.444 67.595 495.316 67.6641 495.207 67.7579C495.098 67.8517 495.011 67.9679 494.951 68.0986C494.891 68.2293 494.86 68.3713 494.86 68.5151Z" fill="#263238"/>
<path d="M494.781 67.0887C494.91 67.2383 495.778 66.6499 496.925 66.6798C498.072 66.7097 498.92 67.3181 499.07 67.1785C499.219 67.0389 499 66.8593 498.631 66.5801C498.139 66.2087 497.541 66.0059 496.925 66.0015C496.315 65.9833 495.715 66.1578 495.21 66.5003C494.85 66.7696 494.721 67.0189 494.781 67.0887Z" fill="#263238"/>
<path d="M490.312 75.6567C489.7 75.4462 489.063 75.3154 488.417 75.2677C488.118 75.2677 487.839 75.158 487.799 74.9585C487.775 74.6467 487.852 74.3355 488.018 74.0708L488.956 71.8266C489.828 69.9192 490.545 67.9446 491.1 65.9219C490.079 67.7546 489.205 69.6657 488.487 71.6371C488.178 72.4251 487.868 73.1831 487.579 73.9012C487.386 74.2576 487.322 74.6702 487.4 75.0682C487.439 75.1763 487.502 75.274 487.585 75.3536C487.669 75.4331 487.769 75.4925 487.878 75.527C488.044 75.5749 488.215 75.6018 488.387 75.6068C489.024 75.7049 489.671 75.7216 490.312 75.6567Z" fill="#263238"/>
<path d="M489.145 89.4909C493.136 89.6507 497.092 88.7013 500.576 86.748C500.576 86.748 497.673 92.5032 489.205 91.4958L489.145 89.4909Z" fill="#A36957"/>
<path d="M498.531 63.6877C498.292 64.0568 497.394 63.8972 496.396 63.6877C495.399 63.4783 494.521 63.3087 494.402 62.8798C494.282 62.4509 495.329 61.8824 496.666 62.1517C498.002 62.421 498.77 63.3686 498.531 63.6877Z" fill="#263238"/>
<path d="M486.891 61.9923C486.801 62.4212 485.844 62.5808 484.747 62.6307C483.649 62.6805 482.682 62.6307 482.552 62.1918C482.423 61.7529 483.35 61.1345 484.677 61.0747C486.003 61.0148 486.981 61.5834 486.891 61.9923Z" fill="#263238"/>
<path d="M490.332 78.4595C490.206 78.4296 490.074 78.4429 489.956 78.4971C489.839 78.5514 489.743 78.6435 489.684 78.7587C489.627 78.8604 489.598 78.9752 489.599 79.0917C489.6 79.2082 489.632 79.3223 489.691 79.4228C489.75 79.5232 489.834 79.6065 489.935 79.6644C490.036 79.7223 490.151 79.7528 490.267 79.7528C490.384 79.7528 490.498 79.7223 490.599 79.6644C490.7 79.6065 490.785 79.5232 490.844 79.4228C490.903 79.3223 490.934 79.2082 490.936 79.0917C490.937 78.9752 490.908 78.8604 490.851 78.7587C490.779 78.6247 490.664 78.5191 490.525 78.4593C490.385 78.3995 490.229 78.389 490.083 78.4296" fill="#A36957"/>
<path d="M490.601 78.5792C490.601 78.5294 490.412 78.2401 489.903 78.3498C489.751 78.3895 489.612 78.4684 489.5 78.5787C489.388 78.689 489.307 78.8268 489.265 78.9782C489.211 79.1692 489.216 79.3718 489.278 79.5601C489.34 79.7484 489.457 79.9139 489.614 80.0355C489.78 80.1491 489.976 80.2099 490.177 80.2099C490.379 80.2099 490.575 80.1491 490.741 80.0355C490.874 79.9461 490.978 79.8207 491.041 79.674C491.105 79.5273 491.125 79.3655 491.1 79.2076C491 78.679 490.611 78.5992 490.591 78.669C490.571 78.7388 490.731 78.9184 490.701 79.2276C490.694 79.304 490.669 79.3776 490.627 79.4419C490.586 79.5063 490.529 79.5594 490.462 79.5966C490.384 79.6413 490.297 79.6648 490.207 79.6648C490.118 79.6648 490.03 79.6413 489.953 79.5966C489.883 79.5376 489.83 79.4615 489.799 79.3759C489.767 79.2902 489.759 79.1979 489.773 79.1079C489.785 79.0291 489.815 78.9543 489.862 78.89C489.909 78.8256 489.971 78.7738 490.043 78.7388C490.322 78.5693 490.571 78.6491 490.601 78.5792Z" fill="#263238"/>
<path d="M505.363 69.8816C504.366 72.2155 501.892 74.0209 502.231 76.5443C502.451 78.1701 503.498 79.6862 503.299 81.322C503.039 83.3168 500.915 84.793 500.606 86.8377C500.236 89.3412 502.68 91.2862 503.648 93.6202C505.074 97.0313 503.259 100.861 503.209 104.592C503.268 107.424 504.351 110.139 506.258 112.233C508.166 114.328 510.768 115.66 513.582 115.982C515.856 116.172 518.419 115.484 519.566 113.529C520.564 111.913 520.344 109.858 520.923 108.073C521.801 105.4 524.344 103.445 524.913 100.692C525.91 95.7048 519.826 91.5156 520.225 86.4088C520.394 84.2245 521.741 82.3294 522.309 80.2149C522.671 78.8252 522.699 77.3696 522.391 75.9671C522.082 74.5646 521.446 73.2551 520.534 72.1457C519.028 70.3603 516.854 69.1535 515.547 67.2384C514.101 65.0341 514.051 62.2513 513.552 59.6481C512.882 56.4839 511.421 53.5411 509.306 51.0948C507.19 48.6485 504.488 46.7786 501.454 45.6598C498.419 44.541 495.15 44.2098 491.953 44.6973C488.756 45.1847 485.734 46.4748 483.171 48.4471C483.171 48.4471 481.724 55.02 488.477 56.1272C495.229 57.2343 498.351 55.9576 499.109 58.6606C498.931 59.7741 499.018 60.9141 499.365 61.9873C499.712 63.0604 500.308 64.0361 501.104 64.8347C503.857 67.807 506.48 67.1686 505.363 69.8816Z" fill="#263238"/>
<path d="M516.086 115.474C515.878 115.481 515.67 115.461 515.467 115.414C514.882 115.31 514.308 115.153 513.752 114.945C511.692 114.155 509.886 112.821 508.525 111.085C507.571 109.887 506.823 108.539 506.311 107.095C505.728 105.451 505.421 103.723 505.403 101.979C505.382 100.056 505.624 98.1402 506.121 96.2833C506.393 95.3025 506.726 94.3398 507.119 93.4007C507.53 92.466 507.893 91.5105 508.206 90.5381C508.48 89.5799 508.48 88.5639 508.206 87.6057C507.914 86.6624 507.537 85.7477 507.079 84.8728C506.616 84.0053 506.226 83.1012 505.912 82.1698C505.605 81.2479 505.533 80.264 505.702 79.3072C506.101 77.4321 507.238 76.0357 507.917 74.6094C508.563 73.289 508.871 71.8291 508.814 70.3604C508.724 68.2109 507.944 66.1477 506.59 64.4756C506.066 63.8899 505.503 63.34 504.904 62.8298C505.604 63.2228 506.229 63.736 506.75 64.3459C508.202 66.0155 509.059 68.1208 509.183 70.3304C509.266 71.8632 508.964 73.3923 508.306 74.7789C507.617 76.2551 506.51 77.6615 506.171 79.377C505.832 81.0926 506.64 82.8979 507.528 84.6334C508.012 85.5333 508.406 86.4788 508.705 87.4561C508.999 88.4996 508.999 89.6043 508.705 90.6479C508.373 91.6541 507.99 92.6428 507.558 93.6102C507.165 94.5289 506.832 95.4717 506.56 96.4329C506.065 98.2428 505.82 100.112 505.832 101.989C505.801 105.184 506.833 108.3 508.764 110.846C510.056 112.56 511.776 113.905 513.752 114.745C515.238 115.324 516.095 115.414 516.086 115.474Z" fill="#455A64"/>
<path d="M515.088 65.144C514.602 65.2699 514.104 65.3434 513.602 65.3635C512.233 65.5099 510.851 65.473 509.493 65.2537C508.463 65.1012 507.473 64.7448 506.583 64.2053C505.692 63.6658 504.918 62.9541 504.306 62.1119C503.736 61.0463 503.281 59.9228 502.949 58.7605C502.524 57.5996 501.724 56.6135 500.675 55.9578C498.491 54.5714 495.928 54.4018 493.693 54.1325C491.633 54.0298 489.632 53.4052 487.878 52.3172C486.704 51.5391 485.856 50.3574 485.495 48.9958C485.408 48.6268 485.384 48.2457 485.425 47.8687C485.425 47.6094 485.485 47.4797 485.505 47.4797C485.516 47.9738 485.58 48.4652 485.694 48.9459C486.107 50.219 486.954 51.3065 488.088 52.018C489.809 53.0221 491.752 53.5841 493.743 53.6538C495.977 53.9131 498.631 54.0428 500.965 55.5189C502.107 56.2362 502.977 57.3137 503.438 58.581C503.751 59.7138 504.182 60.8104 504.725 61.8525C505.887 63.4462 507.627 64.5206 509.572 64.8448C510.887 65.0892 512.226 65.1796 513.562 65.1141C514.071 65.0855 514.581 65.0955 515.088 65.144Z" fill="#455A64"/>
<path d="M512.614 57.025C512.239 57.1507 511.843 57.2081 511.447 57.1946C509.588 57.2071 507.798 56.491 506.46 55.1997C505.85 54.5879 505.33 53.8928 504.914 53.1351C504.017 51.619 503.149 49.7538 501.284 48.9758C499.487 48.373 497.573 48.2055 495.698 48.4871C494.117 48.7093 492.512 48.7093 490.931 48.4871C489.83 48.3345 488.794 47.8786 487.938 47.1705C487.717 46.9777 487.523 46.7563 487.36 46.5122C487.24 46.3393 487.19 46.2496 487.21 46.2429C487.21 46.2429 487.489 46.5621 488.068 47.0109C488.921 47.6175 489.912 48.0015 490.951 48.128C492.503 48.3031 494.072 48.2763 495.618 48.0482C497.575 47.7288 499.58 47.9001 501.453 48.547C502.416 48.9798 503.241 49.6701 503.837 50.5418C504.363 51.3194 504.846 52.1251 505.283 52.9555C505.677 53.6805 506.163 54.3511 506.73 54.9504C507.23 55.4572 507.805 55.8843 508.435 56.2171C509.363 56.7015 510.383 56.9837 511.428 57.045C512.196 57.035 512.605 56.9751 512.614 57.025Z" fill="#455A64"/>
<path d="M519.058 113.319C519.008 113.319 519.327 112.661 519.696 111.424C520.196 109.688 520.418 107.884 520.354 106.078C520.282 103.405 519.552 100.791 518.23 98.4676C517.502 97.161 516.395 95.994 515.487 94.5578C515.007 93.8261 514.668 93.0107 514.49 92.154C514.332 91.2522 514.408 90.3253 514.709 89.4609C515.268 87.7354 516.265 86.2892 516.484 84.7033C516.704 83.1174 515.946 81.711 515.188 80.3844C514.797 79.7389 514.441 79.073 514.121 78.3896C513.829 77.7268 513.637 77.0242 513.552 76.305C513.458 75.0376 513.498 73.7638 513.672 72.5048C513.991 70.7251 513.825 68.8924 513.193 67.1985C512.911 66.6052 512.51 66.0757 512.016 65.6426C512.016 65.6426 512.066 65.6426 512.136 65.7024C512.254 65.7611 512.362 65.8386 512.455 65.9318C512.845 66.2568 513.161 66.6615 513.382 67.1188C514.104 68.8271 514.329 70.7044 514.031 72.5347C513.893 73.7703 513.877 75.0163 513.981 76.2551C514.227 77.6487 514.779 78.9704 515.597 80.1251C516.022 80.7992 516.386 81.5102 516.684 82.2496C516.998 83.0478 517.101 83.9135 516.983 84.7631C516.744 86.5086 515.716 87.9848 515.198 89.6106C514.926 90.395 514.854 91.2349 514.988 92.0542C515.162 92.8467 515.48 93.6005 515.926 94.2785C516.774 95.6649 517.921 96.8518 518.649 98.2183C519.985 100.621 520.698 103.319 520.723 106.068C520.755 107.908 520.472 109.74 519.886 111.484C519.726 111.956 519.533 112.416 519.307 112.86C519.246 113.024 519.162 113.179 519.058 113.319Z" fill="#455A64"/>
<path d="M478.433 299.168C478.433 299.168 471.71 235.493 471.321 211.964C470.932 188.435 481.904 165.215 481.904 165.215L524.873 163.43C524.873 163.43 533.371 187.298 533.52 197.342C533.82 216.832 528.344 236.072 528.972 251.532L530.408 299.208" fill="#FDCC6D"/>
<path d="M531.855 220.881C531.63 221.076 531.394 221.256 531.146 221.42L530.758 221.689L530.339 222.098C529.969 222.417 529.635 222.775 529.341 223.165C527.955 224.861 526.947 227.903 525.98 231.683C525.486 233.78 524.756 235.814 523.805 237.747C523.516 238.277 523.183 238.781 522.808 239.254C522.629 239.493 522.459 239.752 522.249 239.982L521.591 240.64C520.648 241.521 519.553 242.224 518.36 242.715C515.956 243.772 513.233 244.271 510.759 245.517C508.225 246.881 506.267 249.112 505.244 251.801C504.027 254.504 503.249 257.337 502.251 259.99C501.254 262.643 499.907 265.176 497.763 266.792C495.712 268.217 493.278 268.986 490.781 268.997C488.467 269.136 486.322 269.066 484.397 269.356C482.665 269.535 481.009 270.161 479.59 271.171C478.554 271.981 477.777 273.077 477.356 274.323C477.088 275.109 477.03 275.951 477.186 276.766C477.306 277.325 477.455 277.594 477.425 277.604C477.265 277.354 477.15 277.077 477.086 276.786C476.876 275.954 476.904 275.08 477.166 274.263C477.562 272.955 478.345 271.797 479.41 270.942C480.865 269.844 482.587 269.155 484.397 268.947C486.392 268.628 488.517 268.667 490.801 268.518C493.224 268.502 495.586 267.751 497.573 266.363C499.589 264.602 501.077 262.316 501.872 259.76C502.87 257.137 503.598 254.295 504.864 251.542C505.938 248.742 507.985 246.422 510.63 245.009C513.203 243.732 515.926 243.243 518.27 242.226C519.417 241.751 520.471 241.075 521.382 240.231L522.01 239.603C522.21 239.383 522.379 239.134 522.559 238.904C522.91 238.451 523.221 237.967 523.486 237.458C524.442 235.552 525.181 233.544 525.691 231.474C526.688 227.703 527.775 224.621 529.241 222.916C529.533 222.527 529.868 222.173 530.239 221.859C530.398 221.719 530.538 221.579 530.678 221.47L531.087 221.21C531.336 221.085 531.592 220.975 531.855 220.881Z" fill="#FAFAFA"/>
<path d="M532.114 191.417C532.16 191.697 532.18 191.981 532.174 192.265C532.171 193.089 532.07 193.909 531.875 194.709C531.016 197.626 529.328 200.232 527.017 202.209C525.492 203.612 523.82 204.846 522.03 205.89C520.105 207.027 517.981 208.114 515.796 209.351C513.502 210.581 511.365 212.085 509.433 213.829C507.451 215.796 505.818 218.086 504.605 220.602C503.382 223.151 501.986 225.614 500.426 227.973C499.633 229.072 498.716 230.076 497.693 230.965C496.684 231.823 495.576 232.556 494.392 233.149C492.249 234.202 490.016 235.06 487.719 235.713C485.584 236.371 483.59 236.959 481.854 237.707C480.279 238.334 478.78 239.137 477.386 240.101C476.337 240.829 475.393 241.698 474.583 242.685C473.904 243.54 473.338 244.478 472.897 245.477C472.968 245.201 473.062 244.931 473.177 244.669C473.503 243.916 473.922 243.206 474.423 242.555C475.219 241.527 476.16 240.62 477.216 239.862C478.617 238.863 480.126 238.027 481.714 237.368C483.636 236.585 485.597 235.903 487.589 235.324C489.853 234.656 492.056 233.795 494.172 232.75C495.295 232.165 496.349 231.455 497.314 230.636C498.298 229.759 499.181 228.776 499.947 227.703C501.486 225.356 502.868 222.911 504.087 220.382C505.338 217.811 507.025 215.476 509.074 213.48C511.04 211.71 513.218 210.189 515.557 208.952C517.751 207.725 519.876 206.658 521.801 205.531C523.585 204.521 525.257 203.324 526.788 201.96C529.079 200.042 530.781 197.514 531.695 194.669C531.951 193.603 532.092 192.513 532.114 191.417Z" fill="#FAFAFA"/>
<path d="M471.541 215.295C471.501 215.234 471.471 215.166 471.451 215.096C471.376 214.904 471.313 214.707 471.261 214.507C471.09 213.714 471.125 212.89 471.361 212.114C471.92 210.119 474.124 207.555 477.675 206.289C479.45 205.68 481.455 205.291 483.55 204.773C485.289 204.484 486.934 203.784 488.348 202.731C489.762 201.678 490.904 200.302 491.679 198.718C492.246 197.556 492.742 196.36 493.165 195.138C493.945 192.483 495.004 189.918 496.327 187.487C497.842 185.098 500.141 183.31 502.83 182.43C505.276 181.637 507.772 181.004 510.3 180.535C512.557 180.102 514.742 179.357 516.794 178.321C518.531 177.329 520.029 175.967 521.182 174.331C522.885 171.971 523.857 169.161 523.975 166.252C523.98 165.185 523.91 164.118 523.766 163.061C524.067 164.097 524.205 165.174 524.175 166.252C524.136 169.224 523.197 172.114 521.481 174.541C520.314 176.23 518.784 177.637 517.003 178.66C514.925 179.735 512.705 180.51 510.41 180.964C507.905 181.44 505.433 182.076 503.009 182.869C500.428 183.715 498.22 185.432 496.765 187.727C495.465 190.124 494.418 192.652 493.644 195.267C493.213 196.512 492.703 197.728 492.117 198.908C491.527 200.041 490.774 201.083 489.883 202C488.132 203.597 485.975 204.684 483.649 205.142C481.535 205.68 479.54 206.019 477.795 206.598C474.333 207.775 472.139 210.199 471.551 212.134C471.309 212.88 471.244 213.672 471.361 214.448C471.445 214.724 471.506 215.008 471.541 215.295Z" fill="#FAFAFA"/>
<path d="M528.424 269.156C528.464 269.363 528.488 269.573 528.493 269.784C528.512 270.389 528.449 270.993 528.304 271.58C527.677 273.743 526.351 275.637 524.534 276.966C523.32 277.933 521.977 278.725 520.544 279.32C519.018 279.968 517.332 280.487 515.557 281.035C513.714 281.574 511.911 282.24 510.161 283.03C508.343 283.899 506.713 285.115 505.363 286.611C503.907 288.127 502.65 289.793 501.254 291.269C499.918 292.699 498.367 293.91 496.656 294.859C493.744 296.448 490.487 297.298 487.17 297.333C484.949 297.357 482.741 296.989 480.647 296.246C480.079 296.05 479.526 295.813 478.991 295.538C478.797 295.457 478.613 295.353 478.443 295.229C478.646 295.278 478.843 295.348 479.031 295.438C479.579 295.672 480.138 295.879 480.707 296.056C482.797 296.712 484.981 297.018 487.17 296.964C490.414 296.88 493.589 296.014 496.426 294.441C498.084 293.502 499.587 292.314 500.885 290.92C502.251 289.463 503.498 287.808 504.984 286.252C506.414 284.7 508.136 283.446 510.051 282.561C511.827 281.768 513.657 281.102 515.527 280.566C517.282 280.028 518.958 279.569 520.514 278.911C521.906 278.341 523.214 277.586 524.404 276.667C526.191 275.404 527.524 273.599 528.204 271.52C528.351 270.741 528.425 269.949 528.424 269.156Z" fill="#FAFAFA"/>
<path d="M523.526 136.958L515.208 137.157C514.888 138.835 514.251 140.436 513.333 141.875C506.351 129.806 500.995 113.648 499.658 107.155C499.857 106.507 500.087 105.789 500.376 104.991C500.583 103.779 500.546 102.537 500.266 101.34C500.027 99.8938 499.628 97.9488 499.508 97.0512C499.139 94.2983 498.69 93.8694 497.733 94.1786C496.436 94.6075 498.272 101.889 497.204 102.048C496.626 102.128 495.928 99.6345 495.728 97.5898C495.529 95.5451 494.591 89.2414 493.923 88.8225C492.925 88.2041 492.058 89.1815 492.317 91.2163C492.576 93.251 492.885 99.435 491.808 99.5248C490.731 99.6145 489.813 89.1616 489.813 89.1616C489.813 89.1616 489.983 86.8875 488.726 86.9373C486.472 87.0371 488.238 98.0486 488.427 99.0959C488.567 99.814 487.43 99.9537 487.29 99.1657C487.15 98.3777 486.632 88.7227 484.298 88.8025C482.522 88.8025 485.664 97.869 484.667 99.9636C483.669 102.058 482.991 92.862 481.305 92.9817C480.677 93.0316 480.208 93.1513 481.365 98.3478C482.473 102.477 483.805 106.542 485.355 110.526C488.028 124.939 499.758 171.05 518.14 162.612C528.434 157.884 532.603 136.958 532.603 136.958H523.526Z" fill="#B78876"/>
<path d="M488.068 99.7942C488.147 99.814 488.229 99.814 488.307 99.7942C488.428 99.7574 488.531 99.679 488.599 99.573C488.666 99.4669 488.694 99.3402 488.676 99.2157C488.676 98.5973 488.557 97.6996 488.417 96.5326C488.183 95.1262 488.03 93.7075 487.958 92.2836C487.958 91.4458 487.958 90.5481 488.008 89.6006C488.023 89.1188 488.073 88.6387 488.158 88.1643C488.238 87.7154 488.537 87.1669 488.886 87.2566H488.946C489.295 87.2566 489.574 87.516 489.684 87.9349C489.807 88.369 489.854 88.8212 489.823 89.2714C490.029 92.0647 490.385 94.845 490.891 97.5999C490.97 97.9689 491.05 98.3479 491.17 98.727C491.223 98.9209 491.29 99.1109 491.369 99.2955C491.421 99.3982 491.477 99.4981 491.539 99.5947C491.584 99.6676 491.645 99.729 491.718 99.7741C491.79 99.8191 491.873 99.8465 491.958 99.854C492.103 99.8381 492.241 99.7793 492.352 99.6852C492.464 99.5911 492.546 99.4658 492.586 99.3254C492.672 99.1303 492.736 98.9262 492.776 98.717C492.853 98.3149 492.907 97.9086 492.935 97.5001C493.026 95.8381 493.003 94.1718 492.866 92.513C492.739 91.6848 492.706 90.8451 492.766 90.0095C492.802 89.6486 492.977 89.3159 493.255 89.0819C493.319 89.0439 493.39 89.0198 493.464 89.0112C493.538 89.0026 493.612 89.0097 493.683 89.032C493.768 89.0523 493.849 89.086 493.923 89.1318C493.973 89.1697 494.012 89.2218 494.033 89.2814C494.347 90.0902 494.577 90.9291 494.721 91.7849C494.9 92.6626 495.05 93.5703 495.19 94.4779C495.329 95.3856 495.459 96.3032 495.569 97.2308C495.654 98.188 495.807 99.138 496.027 100.073C496.145 100.552 496.295 101.022 496.476 101.48C496.578 101.736 496.719 101.975 496.895 102.188C496.963 102.276 497.054 102.344 497.158 102.383C497.262 102.422 497.375 102.43 497.484 102.407C497.585 102.374 497.675 102.315 497.747 102.237C497.819 102.158 497.869 102.062 497.893 101.959C498.011 101.449 498.048 100.924 498.002 100.403C498.002 99.9039 497.942 99.4052 497.893 98.9264C497.823 98.0886 497.743 97.2607 497.713 96.4429C497.688 96.041 497.688 95.6379 497.713 95.236C497.733 95.0581 497.776 94.8836 497.843 94.7173C497.863 94.6625 497.894 94.6118 497.932 94.5677H498.062C498.72 94.2984 498.94 95.216 499.119 95.9541C499.299 96.6922 499.369 97.53 499.528 98.318C499.788 99.884 500.127 101.45 500.296 102.946C500.412 103.662 500.385 104.395 500.217 105.1C499.977 105.819 499.738 106.527 499.508 107.235V107.305V107.365C500.677 112.265 502.166 117.083 503.967 121.787C505.543 126.046 507.129 129.767 508.515 132.759C509.901 135.751 511.158 138.095 512.016 139.671L513.013 141.456C513.121 141.669 513.252 141.87 513.402 142.055C513.319 141.833 513.215 141.62 513.093 141.416L512.096 139.591C511.278 137.985 510.101 135.602 508.745 132.609C507.388 129.617 505.852 125.897 504.316 121.638C502.558 116.94 501.099 112.136 499.947 107.255V107.395C500.177 106.696 500.406 105.988 500.645 105.28C500.853 104.503 500.894 103.69 500.765 102.896C500.586 101.33 500.256 99.8141 499.997 98.2382C499.848 97.4602 499.748 96.6623 499.588 95.8444C499.578 95.4242 499.507 95.0077 499.379 94.6076C499.265 94.3643 499.071 94.1672 498.83 94.0491C498.574 93.9653 498.298 93.9653 498.042 94.0491H497.883C497.798 94.0761 497.72 94.1203 497.653 94.1787C497.543 94.2727 497.457 94.3926 497.404 94.5278C497.312 94.7437 497.255 94.9725 497.234 95.2061C497.205 95.6378 497.205 96.071 497.234 96.5027C497.234 97.3405 497.354 98.1784 497.424 99.0162C497.424 99.5049 497.504 100.014 497.524 100.462C497.563 100.912 497.54 101.366 497.454 101.809C497.454 101.909 497.374 101.889 497.454 101.939L497.394 101.879C497.267 101.716 497.166 101.534 497.095 101.34C496.92 100.909 496.777 100.465 496.666 100.014C496.447 99.1053 496.297 98.1817 496.217 97.2508C496.111 96.3132 495.981 95.3856 495.828 94.468C495.688 93.5503 495.529 92.6527 495.349 91.755C495.199 90.8413 494.944 89.9478 494.591 89.0919C494.523 88.9489 494.416 88.828 494.282 88.7428C494.166 88.6754 494.042 88.6218 493.913 88.5832C493.771 88.5459 493.623 88.5372 493.477 88.5578C493.331 88.5783 493.191 88.6277 493.065 88.7029C492.859 88.8566 492.688 89.0511 492.561 89.2742C492.434 89.4973 492.354 89.7443 492.327 89.9995C492.262 90.4527 492.262 90.9128 492.327 91.366C492.327 91.7949 492.427 92.2138 492.457 92.6327C492.595 94.2647 492.625 95.9041 492.546 97.54C492.523 97.9287 492.473 98.3152 492.397 98.697C492.368 98.8754 492.318 99.0495 492.247 99.2157C492.221 99.2814 492.184 99.3422 492.137 99.3952C492.137 99.485 492.068 99.3952 492.078 99.5149C492.078 99.4152 492.078 99.5149 492.078 99.3852C492.034 99.3179 491.994 99.248 491.958 99.1758C491.888 99.0162 491.828 98.8367 491.768 98.6671C491.659 98.308 491.579 97.939 491.499 97.5799C490.979 94.8487 490.603 92.092 490.372 89.3213C490.402 88.8198 490.345 88.317 490.202 87.8351C490.137 87.5838 490.002 87.3558 489.813 87.1768C489.716 87.0825 489.6 87.0091 489.473 86.9611C489.346 86.9131 489.211 86.8915 489.075 86.8976H489.135C488.966 86.8729 488.794 86.8985 488.64 86.9712C488.485 87.044 488.356 87.1606 488.267 87.3065C488.119 87.5444 488.018 87.8085 487.968 88.0845C487.885 88.579 487.838 89.0791 487.829 89.5806C487.829 90.578 487.829 91.4458 487.829 92.2936C487.923 93.7265 488.106 95.1523 488.377 96.5626C488.547 97.7196 488.676 98.6172 488.736 99.2257C488.755 99.3322 488.737 99.4421 488.684 99.5366C488.632 99.6312 488.548 99.7046 488.447 99.7443C488.148 99.7742 488.058 99.7842 488.068 99.7942Z" fill="#A36957"/>
<path d="M423.106 150.693C421.16 150.651 419.217 150.876 417.331 151.361C412.174 152.717 403.287 158.103 402.918 164.756H409.382C409.382 164.756 405.761 172.456 406.818 171.738C409.581 169.883 415.067 164.307 415.067 164.307L423.106 150.693Z" fill="#B78876"/>
<path d="M511.208 34.7625C511.058 34.7625 510.48 29.4363 509.901 22.7935C509.323 16.1507 508.964 10.8245 509.104 10.8245C509.243 10.8245 509.832 16.1507 510.41 22.7935C510.989 29.4363 511.348 34.7625 511.208 34.7625Z" fill="#263238"/>
<path d="M539.545 11.2334C539.655 11.3132 535.296 17.6468 529.8 25.3768C524.304 33.1068 519.746 39.3407 519.626 39.221C519.507 39.1013 523.875 32.8076 529.371 25.0776C534.867 17.3476 539.425 11.1536 539.545 11.2334Z" fill="#263238"/>
<path d="M551.314 39.9393C551.314 40.079 546.247 41.2459 539.944 42.5426C533.64 43.8392 528.493 44.7768 528.463 44.6372C528.433 44.4975 533.52 43.3305 539.834 42.0339C546.148 40.7372 551.244 39.7997 551.314 39.9393Z" fill="#263238"/>
<path d="M212.122 176.935L176.813 358.265L172.225 382.004L407.616 380.867C418.189 380.817 427.564 371.431 430.946 357.487L472.698 186.3C475.281 175.718 469.616 164.706 461.596 164.716L223.293 164.966C218.106 164.956 213.458 169.863 212.122 176.935Z" fill="#00C493"/>
<path d="M385.064 345.957L360.129 145.067C359.131 136.838 352.558 130.694 344.808 130.724L290.15 130.894C288.119 130.917 286.113 131.353 284.256 132.176C282.399 132.999 280.729 134.192 279.348 135.681L253.415 163.28L101.408 164.098C92.1223 164.148 84.9808 172.945 86.2076 182.819L109.358 368.489C110.355 376.708 116.928 382.842 124.658 382.832L389.622 382.303C419.126 382.912 421.949 374.204 421.949 374.204C388.076 381.695 385.064 346.007 385.064 345.957Z" fill="#70E0C5"/>
<path d="M422.896 46.512C422.574 46.3759 422.296 46.1508 422.097 45.8629C421.897 45.575 421.783 45.2362 421.769 44.8862L421.37 35.6302C421.356 35.3425 421.409 35.0556 421.525 34.7921C421.641 34.5285 421.817 34.2956 422.039 34.1117C422.26 33.9279 422.522 33.7981 422.802 33.7327C423.083 33.6673 423.374 33.6681 423.654 33.7351C424.427 33.9017 425.225 33.9089 426 33.7563C426.775 33.6036 427.511 33.2943 428.163 32.8474C428.763 32.4677 429.278 31.9691 429.678 31.3824C430.078 30.7957 430.353 30.1334 430.487 29.4362C430.577 28.7303 430.525 28.0134 430.333 27.328C430.141 26.6427 429.813 26.0029 429.37 25.4465C428.902 24.8135 428.314 24.2788 427.64 23.8732C426.966 23.4676 426.218 23.1989 425.44 23.0826C423.87 22.9954 422.317 23.4403 421.032 24.3453C419.747 25.2504 418.805 26.5626 418.358 28.0697C418.209 28.5264 417.89 28.9079 417.466 29.1349C417.043 29.3619 416.549 29.4169 416.086 29.2883C415.623 29.1597 415.228 28.8576 414.982 28.4448C414.736 28.032 414.66 27.5404 414.767 27.0723C415.446 24.7019 416.92 22.6374 418.942 21.226C420.964 19.8146 423.41 19.1423 425.869 19.3223C427.149 19.4929 428.381 19.9189 429.493 20.5752C430.605 21.2314 431.574 22.1045 432.342 23.1425C433.089 24.1045 433.635 25.2066 433.949 26.3836C434.262 27.5606 434.337 28.7886 434.167 29.9947C433.941 31.1992 433.47 32.3444 432.783 33.36C432.097 34.3755 431.21 35.2397 430.178 35.8995C428.681 36.9069 426.933 37.4769 425.131 37.5452L425.44 44.6867C425.451 45.0005 425.384 45.3121 425.243 45.5927C425.102 45.8732 424.892 46.1137 424.634 46.2917C424.375 46.4698 424.076 46.5797 423.763 46.6112C423.451 46.6427 423.135 46.5949 422.847 46.4721L422.896 46.512Z" fill="#70E0C5"/>
<path d="M425.629 50.3024C425.65 50.6036 425.582 50.9042 425.432 51.1663C425.282 51.4284 425.057 51.6401 424.787 51.7747C424.517 51.9093 424.213 51.9606 423.913 51.9223C423.614 51.8839 423.332 51.7576 423.105 51.5592C422.877 51.3609 422.713 51.0995 422.634 50.8081C422.555 50.5166 422.564 50.2083 422.661 49.9221C422.757 49.636 422.936 49.3847 423.175 49.2003C423.414 49.0159 423.702 48.9065 424.004 48.886C424.204 48.8711 424.404 48.896 424.595 48.9593C424.785 49.0226 424.961 49.123 425.112 49.2548C425.263 49.3865 425.387 49.5469 425.476 49.7267C425.564 49.9066 425.617 50.1022 425.629 50.3024Z" fill="#70E0C5"/>
<path d="M390.849 33.4558C390.892 33.2585 390.922 33.0586 390.939 32.8574C390.939 32.4185 391.049 31.86 391.129 31.072C391.227 30.1046 391.39 29.1449 391.617 28.1994C391.747 27.6409 391.817 27.0225 392.016 26.3941C392.216 25.7657 392.415 25.0875 392.635 24.3993C393.789 20.9894 395.472 17.7819 397.622 14.8939C400.439 11.1542 404.01 8.04826 408.105 5.77745C410.435 4.4635 412.917 3.43857 415.496 2.72535C418.278 1.9877 421.145 1.61223 424.023 1.60824C425.54 1.58389 427.056 1.66387 428.562 1.84762C429.33 1.92742 430.088 2.1269 430.856 2.25657C431.632 2.3896 432.399 2.57623 433.15 2.81512C436.294 3.69367 439.284 5.04931 442.017 6.83472C448.093 10.7758 452.722 16.5876 455.203 23.3919C456.539 27.0367 457.214 30.8905 457.198 34.7724C457.239 38.7715 456.532 42.743 455.113 46.4821L454.664 47.6192L454.604 47.7688L454.664 47.9184C457.168 53.6735 459.651 59.3289 461.995 64.8047L462.414 64.3259L447.453 58.5908L447.273 58.521L447.124 58.6606C443.166 62.4954 438.321 65.2915 433.02 66.7995C428.491 68.0464 423.749 68.3187 419.107 67.5983C414.465 66.8779 410.028 65.1813 406.09 62.6204C402.864 60.5051 400.021 57.8575 397.682 54.7906C394.291 50.314 392.095 45.049 391.298 39.4902C391.178 38.4928 391.079 37.655 390.989 36.8969C390.899 36.1389 390.989 35.5205 390.939 34.9919C390.889 34.4632 390.939 34.1141 390.939 33.8249C390.989 33.8173 391.034 33.7913 391.065 33.7519C391.097 33.7126 391.112 33.6628 391.108 33.6126C391.104 33.5625 391.082 33.5156 391.045 33.4814C391.008 33.4472 390.959 33.4282 390.909 33.4282C390.859 33.4282 390.81 33.4472 390.774 33.4814C390.737 33.5156 390.714 33.5625 390.71 33.6126C390.706 33.6628 390.722 33.7126 390.753 33.7519C390.784 33.7913 390.829 33.8173 390.879 33.8249C390.879 34.1141 390.879 34.5031 390.879 34.9919C390.879 35.4806 390.879 36.1588 390.879 36.9169C390.879 37.6749 391.049 38.5427 391.149 39.5301C391.477 41.9292 392.048 44.2886 392.854 46.5719C393.996 49.5872 395.532 52.438 397.422 55.0499C399.771 58.1715 402.635 60.8699 405.89 63.0293C409.877 65.6542 414.377 67.4012 419.09 68.1544C423.804 68.9076 428.623 68.6497 433.23 67.398C438.594 65.8744 443.5 63.0515 447.513 59.1793L447.183 59.2491L462.145 65.0142L462.893 65.3034L462.564 64.5354C460.19 59.0596 457.736 53.4142 455.243 47.6491V47.9384L455.701 46.7714C457.157 42.9507 457.881 38.8905 457.836 34.8023C457.867 30.838 457.192 26.8998 455.841 23.1724C453.307 16.2326 448.575 10.3102 442.366 6.30609C439.565 4.47903 436.496 3.09936 433.269 2.21667C432.506 1.97514 431.726 1.79176 430.936 1.66809C430.158 1.52845 429.39 1.32897 428.612 1.25915C427.086 1.06979 425.55 0.983155 424.013 0.999819C421.089 1.0122 418.178 1.40789 415.356 2.17677C412.743 2.91872 410.229 3.97014 407.865 5.30867C403.73 7.63519 400.136 10.814 397.323 14.6345C395.18 17.5703 393.519 20.8298 392.405 24.2896C392.196 25.0077 391.996 25.6959 391.817 26.2844C391.658 26.8857 391.532 27.495 391.438 28.1097C391.224 29.0616 391.084 30.0287 391.019 31.0022C390.959 31.7702 390.919 32.3587 390.889 32.7975C390.847 33.0143 390.834 33.2356 390.849 33.4558Z" fill="#263238"/>
<rect x="178.746" y="223.131" width="103.732" height="103.732" rx="51.8658" transform="rotate(-2.00998 178.746 223.131)" fill="white"/>
<path d="M207.433 266.889L216.751 266.562L216.132 248.94L229.139 248.483L230.872 297.865L217.865 298.322L208.547 298.649L197.169 290.129L196.68 276.186L207.433 266.889Z" fill="#70E0C5"/>
<path d="M257.568 279.284L248.25 279.611L248.869 297.234L235.862 297.69L234.129 248.308L247.135 247.852L256.454 247.525L267.832 256.044L268.321 269.988L257.568 279.284Z" fill="#1D111C"/>
<path d="M260.634 283.723L253.697 283.967L253.826 287.639L263.8 296.966L269.382 296.576L268.901 282.853L264.911 279.122L260.634 283.723Z" fill="#70E0C5"/>
<path d="M204.573 262.699L211.569 262.453L211.44 258.781L201.384 249.457L195.756 249.848L196.237 263.572L200.26 267.301L204.573 262.699Z" fill="#1D111C"/>
</svg>
