<svg width="547" height="447" viewBox="0 0 547 447" fill="none" xmlns="http://www.w3.org/2000/svg">
<path d="M360.298 219.936C350.943 221.668 341.843 224.571 333.076 228.329C319.693 234.066 307.09 241.796 295.547 250.401C253.241 281.939 225.171 325.226 225.171 325.226L144.351 296.069C154.042 282.795 163.577 271.271 172.83 261.269C211.256 219.725 244.807 204.367 264.48 198.689C276.162 195.316 282.949 195.359 282.949 195.359L360.298 219.936Z" fill="#70E0C5"/>
<path d="M295.547 250.401C253.241 281.939 225.171 325.226 225.171 325.226L144.351 296.069C154.042 282.795 163.577 271.271 172.83 261.268C187.004 264.715 228.435 271.005 295.547 250.401Z" fill="url(#paint0_linear_39_3391)"/>
<path d="M213.436 311.192L212.573 310.91L165.205 295.28L166.33 293.808C169.351 289.854 170.645 286.234 170.167 283.048C169.661 279.681 167.339 277.986 167.241 277.915L166.045 277.081L167.001 275.98C180.101 260.743 193.291 247.383 206.207 236.273C216.556 227.371 226.749 219.883 236.521 214.017C253.249 203.968 262.837 202.166 263.237 202.094L263.479 202.049L263.72 202.099C273.87 204.114 282.249 199.811 282.329 199.768L282.812 199.514L332.309 214.635L329.82 216.166C328.499 216.978 328.44 217.753 328.42 218.008C328.3 219.646 330.286 221.725 330.993 222.323L332.844 223.894L330.521 224.597C318.951 228.083 306.536 234.402 293.621 243.376C283.254 250.58 272.551 259.499 261.806 269.884C243.485 287.592 231.25 303.632 231.13 303.793L230.68 304.384L229.95 304.304C225.832 303.895 221.91 304.802 218.293 306.996C215.556 308.658 214.029 310.475 214.014 310.493L213.436 311.192ZM169.508 293.918L212.595 308.134C213.866 306.858 215.286 305.739 216.824 304.802C220.691 302.429 225.052 301.334 229.474 301.618C231.845 298.573 243.45 283.961 259.943 268.015C270.793 257.525 281.611 248.51 292.098 241.22C304.493 232.605 316.463 226.385 327.714 222.711C326.715 221.486 325.648 219.708 325.79 217.815C325.85 217.033 326.118 216.283 326.566 215.64L283.065 202.348C281.29 203.147 279.445 203.781 277.553 204.241C274.251 205.065 269.148 205.812 263.474 204.738C261.934 205.075 252.66 207.37 237.681 216.397C228.06 222.197 218.004 229.596 207.793 238.389C195.299 249.15 182.538 262.04 169.85 276.717C171.404 278.327 172.425 280.376 172.772 282.586C173.322 286.095 172.223 289.899 169.508 293.918Z" fill="#0D9B79"/>
<path d="M272.418 244.121C272.728 233.778 260.155 225.008 244.335 224.534C228.516 224.059 215.44 232.059 215.129 242.403C214.819 252.746 227.392 261.516 243.212 261.99C259.031 262.465 272.107 254.465 272.418 244.121Z" fill="#0D9B79"/>
<path d="M248.73 245.578C249.765 245.699 249.795 246.182 249.231 246.658L247.311 248.257C246.727 248.74 246.231 248.678 245.196 248.552L238.84 247.794L237.56 248.86L241.913 251.257C242.604 251.637 242.676 252.118 242.111 252.587L240.568 253.872C240.004 254.342 239.292 254.393 238.6 254.014L225.782 246.982C225.09 246.603 225.019 246.121 225.583 245.653L230.139 241.861C233.28 239.244 236.843 238.858 239.862 240.515C241.868 241.616 242.333 243.173 241.595 244.744L248.73 245.578ZM234.834 247.368L236.904 245.645C237.75 244.939 237.807 244.034 236.7 243.426C236.18 243.14 235.587 243.014 234.996 243.065C234.404 243.115 233.841 243.339 233.377 243.709L231.307 245.433L234.834 247.368Z" fill="white"/>
<path d="M256.303 232.812C259.687 234.672 260.39 237.783 257.661 240.062C256.724 240.82 255.621 241.346 254.441 241.597L258.291 243.708C258.959 244.07 259.051 244.54 258.505 244.995L256.942 246.296C256.396 246.75 255.704 246.785 255.035 246.417L241.138 238.79C240.47 238.427 240.38 237.957 240.926 237.503L241.848 236.736C242.393 236.281 243.086 236.246 243.754 236.615L243.916 236.703C243.873 235.561 244.354 234.396 245.54 233.409C248.246 231.147 252.892 230.94 256.303 232.812ZM253.085 235.492C251.587 234.669 249.605 234.726 248.402 235.734C247.272 236.674 247.425 237.98 249.039 238.865C250.652 239.749 252.574 239.584 253.704 238.644C254.909 237.636 254.584 236.314 253.085 235.492Z" fill="white"/>
<path d="M256.254 263.836C248.821 265.69 240.64 265.624 233.079 263.633C225.079 261.528 218.712 257.514 215.15 252.332C213.624 250.112 212.679 247.771 212.343 245.376C212.019 243.048 212.276 240.676 213.094 238.473C214.216 235.4 216.409 232.508 219.436 230.112C222.578 227.623 226.491 225.714 231.061 224.433C238.794 222.271 247.44 222.234 255.398 224.328C263.397 226.434 269.764 230.448 273.327 235.629C274.853 237.85 275.798 240.191 276.134 242.586C276.458 244.914 276.2 247.286 275.382 249.489C274.261 252.562 272.067 255.454 269.041 257.85C265.899 260.339 261.986 262.248 257.415 263.529C257.031 263.636 256.644 263.739 256.254 263.836ZM232.538 225.41C232.164 225.504 231.791 225.602 231.42 225.706C227.02 226.935 223.266 228.765 220.262 231.144C217.426 233.388 215.379 236.079 214.341 238.922C212.798 243.151 213.456 247.528 216.245 251.586C223.095 261.552 240.701 266.352 255.938 262.553C256.313 262.46 256.685 262.361 257.057 262.257C261.457 261.028 265.211 259.198 268.215 256.819C271.05 254.574 273.098 251.884 274.136 249.041C275.679 244.812 275.021 240.435 272.232 236.377C265.382 226.411 247.776 221.612 232.538 225.412V225.41Z" fill="#0D9B79"/>
<path d="M212.507 282.637C217.257 281.479 220.318 277.299 219.344 273.301C218.369 269.302 213.728 266.999 208.977 268.158C204.226 269.316 201.165 273.496 202.14 277.494C203.115 281.493 207.756 283.795 212.507 282.637Z" fill="#0D9B79"/>
<path d="M280.87 224.133C284.361 223.282 286.609 220.211 285.893 217.273C285.177 214.335 281.767 212.644 278.277 213.494C274.787 214.345 272.538 217.416 273.254 220.354C273.97 223.292 277.38 224.984 280.87 224.133Z" fill="#0D9B79"/>
<path d="M258.709 69.9747C248.52 74.2209 238.906 79.7382 229.878 86.1486C216.103 95.9363 203.686 107.805 192.691 120.414C152.395 166.623 131.113 222.762 131.113 222.762L32.3274 209.168C40.0826 191.685 48.0928 176.241 56.1429 162.593C89.5902 105.921 123.91 80.276 144.836 69.0298C157.264 62.3488 164.974 60.7501 164.974 60.7501L258.709 69.9747Z" fill="#FECD6C"/>
<path d="M192.696 120.414C152.399 166.623 131.118 222.762 131.118 222.762L32.3274 209.168C40.0826 191.685 48.0928 176.241 56.1429 162.593C73.0623 163.081 121.593 160.189 192.696 120.414Z" fill="url(#paint1_linear_39_3391)"/>
<path d="M114.382 209.623L113.334 209.511L55.784 203.203L56.7011 201.254C59.1661 196.013 59.7474 191.575 58.4266 188.06C57.0322 184.347 53.9859 182.985 53.8566 182.922L52.2966 182.26L53.1123 180.774C64.2557 160.232 75.9599 141.804 87.8996 126.009C97.4674 113.352 107.21 102.343 116.858 93.2862C133.381 77.7746 143.818 73.3918 144.254 73.213L144.524 73.1018H144.816C156.816 72.9339 165.277 65.9955 165.358 65.9254L165.841 65.5194L225.682 70.7286L223.233 73.0777C221.933 74.3235 222.055 75.2213 222.095 75.5161C222.352 77.4133 225.116 79.2983 226.065 79.8082L228.549 81.1459L226.084 82.5113C213.81 89.2938 201.269 99.5081 188.809 112.87C178.807 123.597 168.84 136.358 159.185 150.802C142.723 175.43 132.757 196.677 132.658 196.889L132.296 197.671L131.438 197.768C126.667 198.303 122.44 200.287 118.871 203.666C116.172 206.224 114.883 208.666 114.869 208.69L114.382 209.623ZM60.3382 200.608L112.682 206.345C113.81 204.583 115.146 202.963 116.661 201.521C120.471 197.877 125.148 195.571 130.234 194.821C132.181 190.775 141.78 171.309 156.6 149.132C166.349 134.544 176.417 121.645 186.539 110.792C198.502 97.965 210.557 87.9707 222.427 81.0504C220.996 79.8976 219.353 78.131 219.051 75.9403C218.927 75.035 219.047 74.1131 219.399 73.2698L166.819 68.6901C165 70.0304 163.062 71.2005 161.029 72.1859C157.484 73.9259 151.877 76.0152 145.179 76.1735C143.515 76.9323 133.555 81.7996 118.766 95.7235C109.267 104.665 99.6642 115.541 90.2269 128.043C78.6763 143.335 67.3467 161.122 56.5331 180.931C58.6909 182.39 60.3479 184.477 61.2796 186.91C62.7574 190.767 62.4396 195.368 60.3382 200.608Z" fill="#FF9100"/>
<path d="M136.81 147.022C154.87 143.766 167.778 131.51 165.639 119.648C163.5 107.786 147.126 100.81 129.065 104.066C111.005 107.322 98.0977 119.578 100.236 131.44C102.375 143.301 118.749 150.278 136.81 147.022Z" fill="#FF9100"/>
<path d="M138.414 126.288C139.622 126.18 139.771 126.725 139.244 127.397L137.457 129.684C136.913 130.379 136.334 130.426 135.131 130.53L127.736 131.211L126.543 132.734L132.074 134.409C132.951 134.674 133.15 135.204 132.623 135.877L131.187 137.716C130.661 138.388 129.866 138.62 128.989 138.356L112.734 133.456C111.857 133.191 111.657 132.659 112.183 131.988L116.425 126.561C119.352 122.815 123.299 121.511 127.128 122.666C129.665 123.432 130.579 125.091 130.123 127.06L138.414 126.288ZM123.093 131.7L125.027 129.232C125.816 128.224 125.657 127.178 124.253 126.755C123.594 126.556 122.89 126.557 122.232 126.758C121.573 126.958 120.989 127.35 120.553 127.884L118.626 130.351L123.093 131.7Z" fill="white"/>
<path d="M143.89 109.9C148.187 111.196 149.739 114.573 147.196 117.824C146.32 118.916 145.196 119.783 143.918 120.354L148.801 121.826C149.647 122.082 149.865 122.591 149.357 123.241L147.907 125.102C147.398 125.752 146.621 125.961 145.773 125.706L128.144 120.39C127.298 120.133 127.079 119.625 127.588 118.975L128.447 117.876C128.955 117.226 129.733 117.017 130.58 117.272L130.785 117.334C130.457 116.043 130.719 114.599 131.823 113.187C134.343 109.959 139.565 108.596 143.89 109.9ZM140.895 113.735C138.995 113.162 136.762 113.709 135.639 115.143C134.588 116.489 135.08 117.939 137.127 118.556C139.174 119.174 141.313 118.515 142.364 117.17C143.483 115.735 142.793 114.308 140.895 113.735Z" fill="white"/>
<path d="M151.407 145.265C143.432 149.182 134.128 151.094 125.065 150.662C115.477 150.205 107.276 147.178 101.972 142.137C99.698 139.977 98.0559 137.545 97.0916 134.886C96.1547 132.313 95.8683 129.548 96.2578 126.838C96.781 123.063 98.5634 119.236 101.413 115.77C104.371 112.171 108.343 109.045 113.215 106.479C121.462 102.139 131.258 99.9964 140.797 100.452C150.384 100.909 158.586 103.936 163.89 108.976C166.164 111.136 167.806 113.567 168.77 116.226C169.707 118.799 169.993 121.564 169.603 124.275C169.081 128.048 167.298 131.876 164.449 135.342C161.49 138.94 157.519 142.066 152.646 144.632C152.234 144.849 151.818 145.061 151.407 145.265ZM115.132 107.238C114.73 107.436 114.331 107.638 113.936 107.842C109.245 110.312 105.433 113.308 102.605 116.748C99.9361 119.995 98.2697 123.557 97.7864 127.05C97.0614 132.246 98.8824 137.071 103.035 141.018C113.238 150.711 134.378 151.905 150.737 143.875C151.139 143.678 151.536 143.475 151.933 143.271C156.624 140.801 160.436 137.805 163.264 134.364C165.933 131.119 167.599 127.557 168.083 124.063C168.808 118.867 166.987 114.042 162.833 110.096C152.625 100.404 131.484 99.2085 115.126 107.238H115.132Z" fill="#FF9100"/>
<path d="M106.421 177.278C111.514 174.778 113.931 169.262 111.818 164.957C109.706 160.653 103.864 159.19 98.7705 161.689C93.677 164.189 91.2604 169.705 93.3729 174.01C95.4854 178.314 101.327 179.777 106.421 177.278Z" fill="#FF9100"/>
<path d="M169.687 93.9786C173.429 92.1415 175.204 88.0892 173.652 84.9274C172.099 81.7656 167.808 80.6917 164.066 82.5288C160.324 84.3659 158.549 88.4182 160.102 91.58C161.654 94.7418 165.946 95.8157 169.687 93.9786Z" fill="#FF9100"/>
<path d="M371.56 165.919C371.56 165.919 334.398 191.812 303.71 192.942C284.784 193.635 223.704 155.819 197.461 104.691C181.148 72.9207 178.297 36.0054 207.377 0L269.029 73.52C269.029 73.52 241.593 94.7666 252.276 120.079C252.276 120.079 265.913 125.339 283.164 100.331C283.164 100.333 340.766 160.11 371.56 165.919Z" fill="url(#paint2_linear_39_3391)"/>
<path d="M198.517 106.705C197.994 105.967 197.621 105.284 197.461 104.692C197.807 105.365 198.159 106.037 198.517 106.705Z" fill="#EC5553"/>
<path d="M245.884 117.463C244.472 113.865 243.875 109.882 244.11 105.621C244.295 102.25 244.999 98.6985 246.204 95.0686C247.346 91.6239 248.851 88.3105 250.694 85.1842C247.742 79.9992 248.09 75.2068 248.933 72.047C249.415 70.2493 250.159 68.5324 251.141 66.9514L219.361 27.368C214.797 32.0033 210.334 34.2991 206.079 34.1952C204.468 34.1687 202.889 33.7458 201.48 32.9639C197.282 38.7205 194.946 46.1785 194.533 55.1518C194.182 62.8115 195.22 71.5782 197.619 81.2051C201.728 97.6641 208.456 111.052 208.524 111.181L206.3 112.307C206.231 112.172 199.371 98.5317 195.201 81.8081C192.742 71.9455 191.68 62.9384 192.044 55.037C192.503 45.0463 195.255 36.7908 200.222 30.4989L201.052 29.4476L202.041 30.3514C202.095 30.3998 203.596 31.6951 206.309 31.706C210.027 31.7217 214.25 29.276 218.524 24.6335L219.505 23.5665L254.283 66.8776L253.679 67.6558C253.665 67.6727 252.13 69.6883 251.322 72.7829C250.26 76.8538 250.898 80.81 253.216 84.5402L253.636 85.2169L253.199 85.8827C253.172 85.9225 250.49 90.0527 248.554 95.912C246.795 101.241 245.306 109.146 248.208 116.548L245.884 117.463Z" fill="#0D9B79"/>
<path d="M238.1 137.715C245.628 135.25 247.515 120.376 242.314 104.494C237.113 88.6107 226.795 77.7332 219.268 80.1979C211.74 82.6627 209.854 97.5364 215.054 113.419C220.255 129.302 230.573 140.18 238.1 137.715Z" fill="#0D9B79"/>
<path d="M371.56 165.919C371.56 165.919 334.398 191.812 303.71 192.942C302.029 193.002 300.017 192.76 297.725 192.232C295.421 191.683 293.156 190.984 290.943 190.139C290.305 189.898 289.654 189.644 288.989 189.379C285.48 187.944 282.044 186.334 278.697 184.553C260.038 174.72 236.234 156.857 217.336 134.246C213.535 129.712 209.963 124.99 206.635 120.097C205.351 118.204 204.11 116.286 202.913 114.344C201.367 111.835 199.901 109.288 198.517 106.705C198.159 106.035 197.807 105.364 197.461 104.692C197.461 104.692 238.093 134.78 283.164 100.331C283.164 100.333 340.765 160.109 371.56 165.919Z" fill="#56DABB"/>
<path d="M352.466 167.405L349.4 168.417C349.279 168.459 336.672 172.721 336.833 180.091L336.85 180.852L336.179 181.215C335.923 181.353 329.775 184.659 321.091 187.644C317.978 188.714 314.934 189.603 311.99 190.303C310.1 190.755 308.253 191.128 306.451 191.422C303.567 191.905 300.652 192.175 297.728 192.23C295.425 191.68 293.16 190.981 290.947 190.137C290.309 189.896 289.658 189.642 288.993 189.377C298.951 190.611 312.709 187.885 320.281 185.285C325.103 183.629 329.806 181.646 334.358 179.35C334.782 173.039 341.82 168.975 345.855 167.153C329.918 159.606 316.343 148.987 307.584 141.211C299.422 133.968 293.88 127.842 292.076 125.785C282.574 130.286 274.881 131.456 269.197 129.263C265.964 128.016 264.242 125.968 263.448 124.728C254.567 127.636 245.994 129.139 237.952 129.199C231.253 129.246 224.902 128.294 219.09 126.37C213.198 124.422 209.069 121.887 206.634 120.097C205.35 118.204 204.109 116.287 202.912 114.344C204.808 116.157 212.655 121.643 220.024 124.054C225.574 125.866 231.64 126.763 238.05 126.712C246.087 126.641 254.695 125.07 263.637 122.044L264.756 121.666L265.193 122.763C265.238 122.868 266.392 125.552 270.172 126.978C273.734 128.32 280.383 128.744 291.842 123.139L292.718 122.709L293.345 123.457C293.405 123.527 299.387 130.62 309.268 139.388C318.369 147.462 332.74 158.651 349.515 166.101L352.466 167.405Z" fill="#0D9B79"/>
<path d="M278.696 184.556C270.732 180.359 261.833 174.702 252.782 167.837C247.818 164.074 242.808 159.948 237.879 155.501C230.729 149.049 223.75 141.921 217.337 134.248C228.937 132.194 244.688 137.511 258.135 149.139C270.534 159.859 277.903 173.292 278.696 184.556Z" fill="#0D9B79"/>
<path d="M254.683 155.148C250.397 150.995 244.549 149.544 241.125 151.957C239.628 153.012 239.015 154.607 239.065 156.366L238.863 156.168C238.582 155.883 238.248 155.655 237.88 155.499C242.809 159.945 247.818 164.078 252.782 167.835C254.111 167.796 255.337 167.435 256.357 166.718C259.797 164.289 258.939 159.275 254.683 155.148ZM251.382 163.047C249.955 164.053 247.536 163.578 245.509 161.613C243.483 159.648 243.295 157.599 244.721 156.593C246.243 155.522 248.737 156.186 250.618 158.011C252.5 159.835 252.909 161.978 251.382 163.047Z" fill="white"/>
<path d="M451.965 446.044C451.965 446.044 437.923 406.386 413.104 392.904C407.876 390.063 402.167 388.386 396.012 388.484C334.802 389.472 305.033 371.423 305.033 371.423C288.258 345.39 298.354 266.258 298.354 266.258C298.354 266.258 313.052 295.656 391.269 298.279C397.489 298.488 403.254 298.917 408.593 299.532C470.417 306.635 475.587 338.429 475.587 338.429C486.611 410.349 451.965 446.044 451.965 446.044Z" fill="#70E0C5"/>
<path d="M451.965 446.044C451.965 446.044 437.923 406.386 413.104 392.904C428.623 356.69 417.277 319.413 408.594 299.533C470.417 306.636 475.587 338.43 475.587 338.43C486.611 410.349 451.965 446.044 451.965 446.044Z" fill="url(#paint3_linear_39_3391)"/>
<path d="M457.271 419.117L456.438 415.975C455.605 412.833 454.207 410.876 452.283 410.175C448.509 408.801 443.565 412.235 443.515 412.27L441.694 413.551L440.864 411.486C437.882 404.031 416.978 377.531 387.589 381.296C383.736 381.773 379.856 382.004 375.974 381.989C363.185 381.989 350.078 379.79 340.358 377.653C326.627 374.632 316.496 371.08 316.396 371.045L315.452 370.711L315.255 369.73C313.213 359.518 305.424 358.657 305.094 358.625L304.014 358.535L303.619 357.532C300.449 349.691 298.942 338.657 299.141 324.735C299.287 314.435 300.333 306.528 300.378 306.196L300.55 304.92L301.817 304.696C306.751 303.826 310.238 301.414 312.181 297.53C313.048 295.794 313.55 293.9 313.657 291.963V288.205L316.545 290.611C319.915 293.419 329.516 297.829 343.37 301.352C355.164 304.35 374.466 307.834 399.457 307.408C410.039 307.227 419.863 308.18 428.659 310.239C435.736 311.897 442.169 314.27 447.783 317.296C457.463 322.512 461.365 327.858 461.527 328.084L461.839 328.519L461.855 329.053C462.238 341.116 464.652 348.067 466.609 351.77C468.604 355.545 470.524 356.773 470.699 356.878L471.623 357.321L471.629 358.333C472.307 370.313 471.975 387.805 466.545 403.109C463.24 412.421 459.602 416.529 459.448 416.699L457.271 419.117ZM450.366 406.334C451.425 406.325 452.476 406.502 453.473 406.857C455.682 407.657 457.41 409.305 458.633 411.776C459.899 409.729 461.654 406.415 463.319 401.667C466.121 393.664 469.212 379.868 468.159 359.39C467.149 358.605 465.445 356.958 463.734 353.856C460.546 348.076 458.737 339.966 458.355 329.743C457.301 328.479 453.479 324.316 445.874 320.262C440.536 317.417 434.408 315.181 427.658 313.616C419.199 311.654 409.726 310.745 399.516 310.923C374.141 311.356 354.504 307.81 342.501 304.76C331.769 302.031 322.171 298.383 316.763 295.056C316.446 296.457 315.964 297.814 315.325 299.1C313.727 302.295 310.428 306.318 303.713 307.896C303.416 310.518 302.763 317.043 302.656 324.823C302.478 337.529 303.814 348.035 306.522 355.306C308.168 355.684 309.738 356.337 311.165 357.239C313.725 358.852 317.006 362.02 318.475 368.037C325.924 370.482 333.492 372.548 341.15 374.225C353.577 376.955 371.641 379.791 387.132 377.806C404.109 375.631 417.778 382.906 426.256 389.395C434.177 395.457 440.524 403.188 443.253 408.327C444.934 407.439 447.584 406.334 450.366 406.334Z" fill="#0D9B79"/>
<path d="M393.619 376.391C375.899 376.391 361.477 361.974 361.477 344.249C361.477 326.524 375.894 312.107 393.619 312.107C411.345 312.107 425.762 326.524 425.762 344.249C425.762 361.974 411.341 376.391 393.619 376.391ZM393.619 315.636C377.839 315.636 365.002 328.474 365.002 344.254C365.002 360.034 377.839 372.871 393.619 372.871C409.399 372.871 422.237 360.033 422.237 344.254C422.237 328.475 409.399 315.636 393.619 315.636Z" fill="#0D9B79"/>
<path d="M412.233 362.865C422.512 352.586 422.512 335.92 412.233 325.641C401.953 315.361 385.287 315.361 375.008 325.641C364.729 335.92 364.729 352.586 375.008 362.865C385.287 373.144 401.953 373.144 412.233 362.865Z" fill="#0D9B79"/>
<path d="M327.674 341.546C331.767 341.546 335.086 338.227 335.086 334.134C335.086 330.04 331.767 326.722 327.674 326.722C323.58 326.722 320.262 330.04 320.262 334.134C320.262 338.227 323.58 341.546 327.674 341.546Z" fill="#0D9B79"/>
<path d="M445.595 375.933C449.688 375.933 453.007 372.615 453.007 368.521C453.007 364.428 449.688 361.109 445.595 361.109C441.501 361.109 438.183 364.428 438.183 368.521C438.183 372.615 441.501 375.933 445.595 375.933Z" fill="#0D9B79"/>
<path d="M392.16 349.557C392.699 350.54 392.128 351.049 391.175 351.049H387.937C386.953 351.049 386.698 350.572 386.159 349.588L382.826 343.556H380.666V349.557C380.666 350.509 380.127 351.049 379.174 351.049H376.571C375.619 351.049 375.079 350.509 375.079 349.557V331.904C375.079 330.952 375.619 330.412 376.571 330.412H384.258C389.56 330.412 392.418 332.984 392.418 337.142C392.418 339.904 390.83 341.841 388.417 342.794L392.16 349.557ZM380.666 339.81H384.158C385.588 339.81 386.731 338.952 386.731 337.429C386.731 335.872 385.588 334.953 384.158 334.953H380.666V339.81Z" fill="white"/>
<path d="M412.829 343.112C412.829 347.778 409.495 351.461 404.891 351.461C403.465 351.477 402.065 351.08 400.859 350.318V355.621C400.859 356.541 400.352 357.082 399.431 357.082H396.795C395.875 357.082 395.367 356.541 395.367 355.621V336.477C395.367 335.556 395.875 335.016 396.795 335.016H398.352C399.273 335.016 399.78 335.556 399.78 336.477V336.699C401.194 335.457 403.01 334.77 404.891 334.766C409.464 334.762 412.829 338.412 412.829 343.112ZM407.4 343.112C407.4 341.048 406.003 339.461 403.971 339.461C402.066 339.461 400.574 340.89 400.574 343.112C400.574 345.334 402.066 346.763 403.971 346.763C406.008 346.763 407.4 345.176 407.4 343.112Z" fill="white"/>
<path d="M547 206.527L447.739 280.291C447.739 280.291 446.916 225.37 401.754 171.51C385.618 152.265 363.811 133.153 334.372 116.733L417.539 32.4092C417.539 32.4092 463.434 47.5644 502.907 104.363C520.373 129.498 536.582 162.786 547 206.527Z" fill="#70E0C5"/>
<path d="M547 206.527L447.739 280.292C447.739 280.292 446.916 225.371 401.754 171.51C425.809 171.433 476.728 163.777 502.907 104.363C520.374 129.498 536.583 162.786 547 206.527Z" fill="url(#paint4_linear_39_3391)"/>
<path d="M469.48 251.469L468.648 250.688C468.631 250.672 466.69 248.892 463.481 247.608C459.243 245.916 454.886 245.833 450.53 247.366L448.856 247.957L448.724 246.187C448.724 246.125 448.165 239.609 443.203 227.499C434.899 207.231 420.862 187.166 410.549 173.903L410.531 173.88C410.474 173.804 404.776 166.162 396.05 156.783C388.021 148.153 375.714 136.241 362.672 128.508L360.909 127.462L362.56 126.247C362.595 126.221 366.341 123.378 366.265 119.238C366.202 115.866 363.689 112.445 358.795 109.07L357.487 108.168L405.687 57.4659L406.533 57.7885C406.564 57.8006 409.877 59.0307 414.835 59.1382C421.443 59.2796 427.692 57.4647 433.406 53.7429L434.121 53.2777L434.846 53.72C434.967 53.79 446.488 60.8166 460.204 72.2417C468.263 78.9541 475.5 85.8562 481.712 92.7547C489.5 101.403 495.697 110.075 500.129 118.531C519.161 154.844 529.137 185.103 529.236 185.405L529.504 186.227L528.872 186.818C526.587 189.101 524.629 191.69 523.054 194.51C519.731 200.509 519.09 206.167 521.151 211.326L521.535 212.293L469.48 251.469ZM451.21 244.315C455.641 243.099 460.35 243.386 464.6 245.132C466.387 245.856 468.072 246.81 469.612 247.972L518.272 211.358C516.37 205.717 517.209 199.439 520.723 193.133C522.286 190.351 524.191 187.776 526.395 185.468C524.703 180.492 514.945 152.646 497.729 119.799C493.406 111.551 487.346 103.072 479.717 94.5987C473.596 87.8004 466.459 80.9914 458.506 74.3635C446.878 64.6749 436.852 58.1897 434.155 56.4919C426.671 61.126 419.454 61.9767 414.655 61.857C410.759 61.7592 407.825 61.0366 406.438 60.6221L361.617 107.767C366.44 111.407 368.915 115.259 368.976 119.225C369.032 122.85 367.05 125.603 365.611 127.122C378.354 135.021 390.222 146.534 398.058 154.961C406.711 164.265 412.428 171.888 412.697 172.249C421.058 183.003 428.293 193.551 434.206 203.602C438.943 211.662 442.844 219.425 445.806 226.676C449.466 235.669 450.764 241.611 451.21 244.315Z" fill="#0D9B79"/>
<path d="M478.081 182.049C469.193 187.838 458.572 190.365 448.028 189.201C437.485 188.037 427.671 183.254 420.259 175.665C412.847 168.077 408.296 158.153 407.381 147.585C406.465 137.017 409.243 126.458 415.239 117.709C421.236 108.959 430.081 102.559 440.267 99.5992C450.454 96.6396 461.351 97.3036 471.103 101.478C480.854 105.652 488.857 113.079 493.747 122.492C498.637 131.905 500.112 142.723 497.92 153.101C496.692 158.998 494.305 164.593 490.9 169.562C487.495 174.531 483.138 178.775 478.081 182.049ZM429.515 107.482C421.152 112.929 414.937 121.107 411.928 130.623C408.919 140.139 409.303 150.404 413.014 159.669C416.724 168.934 423.533 176.625 432.279 181.433C441.025 186.24 451.168 187.867 460.979 186.034C470.789 184.202 479.661 179.025 486.083 171.384C492.504 163.744 496.078 154.114 496.194 144.134C496.311 134.155 492.964 124.443 486.723 116.655C480.483 108.866 471.734 103.482 461.969 101.421C456.428 100.236 450.706 100.161 445.135 101.201C439.565 102.242 434.255 104.377 429.515 107.482Z" fill="#0D9B79"/>
<path d="M481.279 171.849C496.865 156.263 496.865 130.992 481.279 115.405C465.692 99.8187 440.421 99.8187 424.835 115.405C409.248 130.992 409.248 156.263 424.835 171.849C440.421 187.436 465.692 187.436 481.279 171.849Z" fill="#0D9B79"/>
<path d="M413.466 106.815C417.747 102.533 417.747 95.5902 413.466 91.3082C409.184 87.0263 402.241 87.0263 397.959 91.3082C393.677 95.5902 393.677 102.533 397.959 106.815C402.241 111.097 409.184 111.097 413.466 106.815Z" fill="#0D9B79"/>
<path d="M486.239 212.92C492.295 212.92 497.204 208.01 497.204 201.955C497.204 195.899 492.295 190.99 486.239 190.99C480.183 190.99 475.274 195.899 475.274 201.955C475.274 208.01 480.183 212.92 486.239 212.92Z" fill="#0D9B79"/>
<path d="M444.762 149.367C444.279 150.716 443.312 150.6 442.503 149.69L439.761 146.594C438.927 145.654 439.167 145.007 439.651 143.658L442.594 135.365L440.766 133.301L435.031 138.382C434.12 139.188 433.147 139.129 432.341 138.219L430.137 135.73C429.33 134.82 429.389 133.847 430.299 133.041L447.172 118.096C448.083 117.29 449.055 117.349 449.861 118.259L456.367 125.604C460.856 130.671 460.818 135.58 456.842 139.101C454.203 141.44 451.007 141.562 448.054 140.068L444.762 149.367ZM444.348 130.129L447.305 133.466C448.513 134.832 450.301 135.199 451.757 133.909C453.245 132.592 453.157 130.72 451.947 129.354L448.99 126.016L444.348 130.129Z" fill="white"/>
<path d="M468.423 163.666C463.962 167.617 457.619 167.549 453.721 163.149C452.499 161.799 451.693 160.124 451.4 158.327L446.332 162.816C445.452 163.596 444.506 163.568 443.727 162.687L441.495 160.169C440.715 159.289 440.801 158.347 441.681 157.566L459.98 141.357C460.86 140.578 461.806 140.605 462.585 141.486L463.902 142.973C464.682 143.852 464.597 144.795 463.716 145.575L463.504 145.763C465.783 146.073 467.989 147.092 469.683 149.008C473.555 153.38 472.914 159.687 468.423 163.666ZM463.831 158.476C465.803 156.729 466.138 154.05 464.417 152.108C462.804 150.287 460.175 150.071 458.052 151.952C455.929 153.833 455.825 156.47 457.438 158.291C459.154 160.233 461.853 160.223 463.826 158.476H463.831Z" fill="white"/>
<path d="M541.565 337.413C535.077 330.061 527.684 323.554 519.709 317.799C507.533 309.014 493.999 301.969 480.248 296.339C429.852 275.685 376.548 273.864 376.548 273.864L359.696 186.897C376.613 188.414 391.897 190.722 405.679 193.588C462.908 205.488 494.304 227.003 509.755 241.383C518.931 249.923 522.482 255.946 522.482 255.946L541.565 337.413Z" fill="#FECD6C"/>
<path d="M480.248 296.335C429.852 275.68 376.548 273.859 376.548 273.859L359.696 186.893C376.613 188.409 391.897 190.717 405.679 193.583C410.116 207.952 426.441 247.934 480.248 296.335Z" fill="url(#paint5_linear_39_3391)"/>
<path d="M382.807 256.024L382.602 255.112L371.427 204.911L373.329 205.123C378.441 205.696 382.341 204.914 384.918 202.797C387.64 200.562 387.92 197.601 387.929 197.481L388.038 195.98L389.522 196.241C409.988 199.728 428.833 204.294 445.535 209.812C458.918 214.233 470.965 219.273 481.344 224.795C499.119 234.248 505.791 241.769 506.067 242.086L506.237 242.28L506.325 242.522C509.902 252.565 518.159 257.692 518.242 257.747L518.725 258.041L531.476 309.848L528.799 308.461C527.378 307.725 526.658 308.084 526.423 308.202C524.901 308.962 524.107 311.827 523.949 312.771L523.536 315.241L521.682 313.559C512.465 305.18 500.285 297.559 485.48 290.907C473.596 285.567 460.01 280.84 445.101 276.857C419.678 270.065 398.957 267.769 398.75 267.748L397.988 267.664L397.661 266.971C395.849 263.112 392.966 260.125 389.104 258.094C386.18 256.556 383.757 256.17 383.733 256.161L382.807 256.024ZM374.914 207.998L385.078 253.656C386.882 254.1 388.627 254.759 390.273 255.621C394.429 257.781 397.707 261.058 399.794 265.117C403.754 265.6 422.874 268.092 445.764 274.205C460.822 278.225 474.554 283.002 486.577 288.402C500.786 294.785 512.645 302.066 521.861 310.063C522.422 308.528 523.432 306.641 525.192 305.76C525.918 305.397 526.728 305.234 527.538 305.289L516.33 259.762C514.682 258.617 513.143 257.322 511.733 255.895C509.254 253.412 505.893 249.295 503.844 243.706C502.732 242.524 495.788 235.549 479.838 227.09C469.597 221.662 457.705 216.698 444.489 212.348C428.321 207.018 410.12 202.583 390.369 199.161C389.76 201.394 388.479 203.385 386.7 204.865C383.881 207.214 379.921 208.264 374.914 207.998Z" fill="#FF9100"/>
<path d="M473.127 273.353C482.49 268.159 483.669 252.392 475.76 238.137C467.852 223.881 453.851 216.536 444.488 221.73C435.125 226.924 433.946 242.691 441.854 256.947C449.763 271.202 463.764 278.548 473.127 273.353Z" fill="#FF9100"/>
<path d="M459.765 252.371C460.201 253.352 459.787 253.636 459.07 253.387L456.635 252.542C455.895 252.283 455.689 251.811 455.254 250.828L452.564 244.804L450.942 244.239L451.123 249.362C451.151 250.176 450.76 250.495 450.045 250.246L448.087 249.563C447.371 249.314 446.949 248.711 446.92 247.898L446.387 232.826C446.358 232.013 446.75 231.694 447.464 231.943L453.241 233.956C457.229 235.345 459.456 238.289 459.581 241.84C459.665 244.199 458.529 245.436 456.744 245.618L459.765 252.371ZM450.823 241.038L453.449 241.953C454.523 242.327 455.357 241.895 455.311 240.593C455.29 239.982 455.088 239.39 454.731 238.894C454.373 238.398 453.876 238.019 453.303 237.806L450.676 236.89L450.823 241.038Z" fill="white"/>
<path d="M475.114 252.283C475.255 256.271 472.859 258.54 469.397 257.333C468.228 256.908 467.177 256.212 466.33 255.301L466.491 259.828C466.519 260.615 466.152 260.942 465.46 260.7L463.478 260.01C462.786 259.769 462.391 259.175 462.361 258.389L461.782 242.042C461.754 241.257 462.119 240.929 462.811 241.17L463.981 241.578C464.673 241.82 465.068 242.413 465.1 243.199L465.107 243.388C466.098 242.743 467.389 242.551 468.892 243.074C472.331 244.273 474.971 248.271 475.114 252.283ZM471.03 250.861C470.969 249.099 469.869 247.377 468.342 246.845C466.909 246.346 465.83 247.175 465.897 249.072C465.965 250.969 467.13 252.577 468.563 253.081C470.09 253.612 471.093 252.623 471.03 250.861Z" fill="white"/>
<path d="M447.526 268.725C441.947 263.138 437.679 255.868 435.442 248.123C433.081 239.93 433.278 232.172 435.998 226.262C437.163 223.732 438.743 221.654 440.692 220.084C442.587 218.56 444.828 217.528 447.218 217.08C450.541 216.438 454.27 216.838 458 218.245C461.874 219.702 465.639 222.147 469.192 225.509C475.203 231.201 479.809 238.826 482.158 246.977C484.52 255.17 484.321 262.933 481.603 268.836C480.437 271.367 478.857 273.446 476.908 275.015C475.014 276.539 472.772 277.571 470.383 278.02C467.059 278.661 463.33 278.261 459.6 276.855C455.727 275.398 451.96 272.953 448.408 269.59C448.113 269.306 447.819 269.018 447.526 268.725ZM469.117 227.332C468.835 227.05 468.55 226.773 468.262 226.499C464.841 223.262 461.231 220.914 457.529 219.522C454.034 218.207 450.561 217.83 447.486 218.419C442.915 219.301 439.373 222.209 437.244 226.833C432.013 238.191 437.063 256.307 448.498 267.763C448.78 268.044 449.064 268.322 449.353 268.595C452.772 271.833 456.384 274.18 460.087 275.573C463.58 276.888 467.053 277.265 470.129 276.676C474.7 275.794 478.241 272.884 480.371 268.262C485.601 256.91 480.553 238.79 469.117 227.332Z" fill="#FF9100"/>
<path d="M419.647 241.073C422.661 238.064 422.218 232.733 418.657 229.166C415.097 225.599 409.767 225.147 406.752 228.156C403.738 231.165 404.181 236.496 407.742 240.063C411.302 243.63 416.632 244.082 419.647 241.073Z" fill="#FF9100"/>
<path d="M3.26245 337.008C3.26245 337.008 28.1159 304.604 54.1765 295.241C70.2477 289.473 133.067 305.271 169.589 342.034C192.287 364.872 204.827 395.815 189.68 434.699L116.614 388.382C116.614 388.382 134.376 362.627 118.285 343.793C118.285 343.793 105.128 343.001 97.1385 369.204C97.1409 369.207 31.3084 333.584 3.26245 337.008Z" fill="url(#paint6_linear_39_3391)"/>
<path d="M168.132 340.597C168.783 341.088 169.291 341.574 169.589 342.039C169.108 341.555 168.623 341.074 168.132 340.597Z" fill="#EC5553"/>
<path d="M124.492 344.301C126.688 347.007 128.289 350.267 129.252 353.989C130.014 356.938 130.379 360.181 130.339 363.629C130.3 366.901 129.911 370.16 129.182 373.349C133.137 376.999 134.147 381.211 134.286 384.157C134.363 385.834 134.193 387.512 133.781 389.139L171.909 414.464C174.568 409.234 177.772 406.042 181.455 404.967C182.847 404.551 184.32 404.483 185.744 404.769C187.777 398.675 187.746 391.63 185.648 383.805C183.858 377.128 180.573 369.879 175.876 362.263C167.853 349.242 158.41 339.582 158.315 339.487L159.918 337.916C160.014 338.014 169.634 347.854 177.789 361.088C182.597 368.891 185.972 376.34 187.819 383.229C190.154 391.939 190.047 399.783 187.498 406.55L187.072 407.68L185.976 407.174C185.915 407.148 184.272 406.449 181.939 407.174C178.739 408.177 175.776 411.433 173.375 416.591L172.824 417.775L131.107 390.055L131.415 389.221C131.422 389.203 132.191 387.046 132.038 384.172C131.838 380.385 130.21 377.163 127.198 374.587L126.653 374.12L126.846 373.429C126.858 373.387 128.034 369.105 128.096 363.54C128.151 358.481 127.27 351.281 122.753 345.713L124.492 344.301Z" fill="#0D9B79"/>
<path d="M157.544 369.016C163.339 364.842 160.896 351.546 152.088 339.319C143.28 327.093 131.442 320.566 125.647 324.74C119.852 328.915 122.295 342.211 131.103 354.438C139.911 366.664 151.75 373.191 157.544 369.016Z" fill="#0D9B79"/>
<path d="M3.26245 337.008C3.26245 337.008 28.1159 304.604 54.1765 295.241C55.6036 294.729 57.3992 294.387 59.5139 294.214C61.6452 294.057 63.7845 294.039 65.9181 294.16C66.532 294.19 67.1607 294.231 67.8044 294.281C71.2123 294.554 74.6044 294.997 77.9679 295.61C96.6974 298.958 122.02 307.804 144.441 322.073C148.946 324.93 153.305 328.011 157.502 331.306C159.123 332.582 160.714 333.89 162.272 335.232C164.286 336.965 166.242 338.752 168.138 340.594C168.628 341.072 169.114 341.553 169.595 342.036C169.595 342.036 126.457 327.294 97.1469 369.205C97.1409 369.207 31.3084 333.584 3.26245 337.008Z" fill="#70E0C5"/>
<path d="M19.2625 330.513L21.62 328.806C21.7154 328.735 31.3786 321.628 29.2326 315.339L29.0103 314.69L29.4864 314.196C29.67 314.007 34.0443 309.483 40.6951 304.547C43.0779 302.778 45.4499 301.181 47.7869 299.773C49.2885 298.869 50.7732 298.044 52.2409 297.298C54.587 296.094 57.0188 295.065 59.5164 294.219C61.6477 294.062 63.787 294.044 65.9207 294.165C66.5346 294.195 67.1633 294.236 67.807 294.286C58.9135 295.947 47.8365 302.049 42.0412 306.354C38.3506 309.093 34.8511 312.08 31.5671 315.295C32.9278 320.836 27.9904 326.25 25.0215 328.918C40.7784 331.047 55.3512 336.463 64.9963 340.749C73.9877 344.743 80.4258 348.493 82.538 349.767C89.4716 343.303 95.7623 340.195 101.246 340.526C104.365 340.714 106.403 342.004 107.424 342.852C114.261 337.924 121.216 334.291 128.108 332.046C133.85 330.174 139.564 329.257 145.087 329.321C150.683 329.385 154.923 330.434 157.504 331.307C159.126 332.583 160.716 333.892 162.275 335.233C160.152 334.198 151.909 331.624 144.918 331.567C139.652 331.524 134.198 332.413 128.704 334.213C121.817 336.472 114.849 340.174 107.994 345.218L107.135 345.849L106.456 345.026C106.39 344.947 104.664 342.956 101.027 342.764C97.6002 342.584 91.7699 344.037 83.4564 351.986L82.8208 352.59L82.0776 352.12C82.0076 352.075 74.9314 347.615 64.0429 342.783C54.0136 338.331 38.6082 332.645 22.1589 330.828L19.2625 330.513Z" fill="#0D9B79"/>
<path d="M77.9619 295.617C85.9516 297.048 95.1435 299.476 104.798 302.901C110.092 304.777 115.524 306.954 120.975 309.426C129.08 313.089 136.919 317.315 144.435 322.073C135.027 327.009 120.042 326.745 105.308 320.428C91.7239 314.605 81.7199 305.077 77.9619 295.617Z" fill="#0D9B79"/>
<path d="M106.631 314.321C111.449 316.719 116.872 316.367 119.153 313.355C120.151 312.039 120.241 310.5 119.718 309.005L119.946 309.119C120.266 309.287 120.615 309.391 120.974 309.426C115.523 306.952 110.092 304.775 104.798 302.901C103.663 303.299 102.711 303.943 102.032 304.834C99.7351 307.866 101.847 311.938 106.631 314.321ZM107.309 306.629C108.26 305.376 110.469 305.123 112.747 306.258C115.024 307.393 115.746 309.101 114.801 310.354C113.787 311.692 111.462 311.804 109.348 310.749C107.233 309.695 106.295 307.967 107.309 306.629Z" fill="white"/>
<path d="M107.411 86.9302L63.2152 127.697C63.2152 127.697 59.9925 101.188 35.3891 77.4712C26.5971 68.9958 15.0755 60.878 0 54.4532L35.8664 9.4093C35.8664 9.4093 58.8349 14.3756 80.839 39.8055C90.576 51.0589 100.124 66.3193 107.411 86.9302Z" fill="#56DABB"/>
<path d="M107.411 86.9306L63.2152 127.697C63.2152 127.697 59.9925 101.188 35.3892 77.4716C47.0148 76.1968 71.2375 69.8746 80.8391 39.8059C90.576 51.0593 100.124 66.3197 107.411 86.9306Z" fill="url(#paint7_linear_39_3391)"/>
<path d="M72.2438 112.644L71.8003 112.31C70.9877 111.758 70.0894 111.345 69.1419 111.087C67.0552 110.481 64.8172 110.677 62.8681 111.638L62.09 112.01L61.9353 111.164C61.9292 111.135 61.3311 108.013 58.3042 102.413C53.2508 93.0377 45.434 84.0596 39.7632 78.1785L39.7535 78.1676C39.7221 78.1338 36.5743 74.7323 31.8738 70.6468C27.5503 66.8876 20.9853 61.763 14.2826 58.695L13.3763 58.2829L14.1122 57.6098C14.1279 57.5953 15.793 56.0281 15.5429 54.0319C15.3387 52.4055 13.9478 50.8805 11.4091 49.5006L10.73 49.1381L31.4255 22.1373L31.8508 22.2509C31.8666 22.2509 33.5317 22.6787 35.9339 22.4757C39.136 22.205 42.0639 21.0051 44.634 18.9122L44.9555 18.65L45.3313 18.8277C45.3905 18.8542 51.3247 21.66 58.5422 26.4778C62.7848 29.3077 66.6382 32.2779 69.9962 35.2891C74.2074 39.07 77.65 42.9428 80.2274 46.8035C91.2959 63.3797 97.6748 77.4958 97.7377 77.6371L97.9105 78.0214L97.635 78.3416C96.6476 79.5628 95.8343 80.9149 95.2183 82.3594C93.9193 85.431 93.9011 88.1994 95.1627 90.5871L95.4043 91.0342L72.2438 112.644ZM63.0421 110.121C65.1216 109.305 67.4129 109.202 69.5576 109.827C70.4592 110.085 71.3232 110.46 72.1278 110.942L93.7682 90.7454C92.5599 88.116 92.642 85.0383 94.0099 81.8036C94.6224 80.3786 95.4111 79.0361 96.3577 77.8075C95.2835 75.4887 89.1342 62.5279 79.1217 47.5334C76.6071 43.7669 73.2419 39.9799 69.1178 36.2763C65.8093 33.3038 62.009 30.3795 57.822 27.5834C53.7519 24.8572 49.5143 22.3897 45.1343 20.1955C42.5002 22.2624 39.3187 23.5129 35.9822 23.7928C34.6354 23.9102 33.2791 23.8512 31.9475 23.6176L12.7081 48.72C15.2263 50.2304 16.6207 51.9644 16.8539 53.8797C17.0678 55.6269 16.2498 57.0625 15.6335 57.8672C22.2009 61.0307 28.5303 65.9874 32.7523 69.6572C37.4141 73.71 40.5703 77.1018 40.719 77.2626C45.3107 82.0319 49.3551 86.7602 52.7276 91.3157C55.4319 94.9686 57.7169 98.5212 59.5198 101.874C61.7552 106.037 62.6881 108.842 63.0421 110.121Z" fill="#0D9B79"/>
<path d="M72.8327 78.6398C68.8343 81.8974 63.83 83.6678 58.6726 83.6493C53.5152 83.6308 48.5238 81.8246 44.5488 78.5384C40.5738 75.2522 37.8613 70.6894 36.8735 65.6275C35.8856 60.5655 36.6835 55.3176 39.1312 50.7781C41.5789 46.2385 45.525 42.688 50.297 40.7318C55.0691 38.7755 60.3718 38.5345 65.3016 40.0497C70.2315 41.5649 74.4834 44.7426 77.3329 49.0414C80.1824 53.3402 81.4532 58.494 80.9287 63.6247C80.6386 66.5384 79.7737 69.3656 78.3841 71.9429C76.9944 74.5201 75.1076 76.7963 72.8327 78.6398ZM45.5166 45.0885C41.7538 48.152 39.1697 52.4252 38.2043 57.1803C37.2389 61.9354 37.9521 66.8781 40.2223 71.1663C42.4924 75.4545 46.1792 78.823 50.6545 80.6978C55.1297 82.5726 60.1166 82.8377 64.7654 81.448C69.4142 80.0584 73.4374 77.0998 76.1495 73.0765C78.8616 69.0532 80.0948 64.214 79.6391 59.3833C79.1834 54.5527 77.0669 50.0295 73.6502 46.5844C70.2335 43.1392 65.7281 40.9853 60.9014 40.4895C58.1603 40.2005 55.389 40.4581 52.7482 41.2475C50.1073 42.037 47.6493 43.3425 45.5166 45.0885Z" fill="#0D9B79"/>
<path d="M72.4791 75.0725C80.0573 67.4944 80.0573 55.2078 72.4791 47.6297C64.901 40.0516 52.6145 40.0515 45.0363 47.6297C37.4582 55.2078 37.4582 67.4944 45.0363 75.0725C52.6145 82.6506 64.901 82.6506 72.4791 75.0725Z" fill="#0D9B79"/>
<path d="M38.7542 43.5119C39.456 40.6524 37.7068 37.7654 34.8473 37.0635C31.9878 36.3617 29.1008 38.1108 28.399 40.9704C27.6971 43.8299 29.4463 46.7169 32.3058 47.4187C35.1653 48.1206 38.0523 46.3714 38.7542 43.5119Z" fill="#0D9B79"/>
<path d="M78.3083 93.1432C81.2397 92.8666 83.3918 90.266 83.1152 87.3347C82.8386 84.4033 80.2381 82.2512 77.3067 82.5278C74.3754 82.8044 72.2232 85.4049 72.4998 88.3363C72.7764 91.2676 75.3769 93.4197 78.3083 93.1432Z" fill="#0D9B79"/>
<path d="M55.0432 64.5527C54.8777 65.2306 54.404 65.2245 53.9665 64.8258L52.4815 63.47C52.0308 63.058 52.1129 62.7329 52.2785 62.0562L53.2742 57.8947L52.2845 56.992L49.7735 59.7422C49.3748 60.1797 48.9011 60.2014 48.4637 59.8027L47.271 58.7151C46.8336 58.3164 46.8119 57.8427 47.2106 57.4065L54.5997 49.3105C54.9985 48.8731 55.471 48.8525 55.9084 49.2501L59.4307 52.4667C61.862 54.6853 62.0964 57.0585 60.3551 58.9677C59.1987 60.234 57.6605 60.4576 56.1549 59.8848L55.0432 64.5527ZM53.853 55.2737L55.454 56.7358C56.109 57.334 56.9923 57.4186 57.6291 56.7201C58.2659 56.0217 58.1414 55.107 57.4853 54.5088L55.8842 53.0467L53.853 55.2737Z" fill="white"/>
<path d="M67.2175 70.2453C65.2636 72.3853 62.1931 72.6789 60.0882 70.7516C59.4274 70.1623 58.9515 69.3943 58.7179 68.5403L56.4933 70.9703C56.1078 71.392 55.6475 71.4271 55.2269 71.0416L54.0186 69.9384C53.5969 69.5529 53.5896 69.0925 53.9751 68.6708L61.9889 59.8981C62.3744 59.4764 62.8348 59.4414 63.2553 59.8268L63.9694 60.4781C64.3911 60.8624 64.3984 61.324 64.0129 61.7457L63.9199 61.8472C65.0881 61.8684 66.2089 62.3133 67.0737 63.0991C69.169 65.0119 69.1835 68.0944 67.2175 70.2453ZM64.7283 67.9736C65.591 67.0274 65.6152 65.7139 64.6835 64.8645C63.8099 64.0669 62.5278 64.0972 61.5986 65.1158C60.6694 66.1344 60.7528 67.4117 61.6276 68.2128C62.5593 69.0659 63.8643 68.9233 64.7283 67.9772V67.9736Z" fill="white"/>
<path d="M272.774 9.25854C272.774 9.25854 283.674 25.1617 296.256 28.2019C298.906 28.8424 301.632 28.9113 304.352 28.1415C331.341 20.4769 346.654 24.9551 346.654 24.9551C357.156 34.5011 362.028 70.7373 362.028 70.7373C362.028 70.7373 352.049 59.4537 317.102 67.5267C314.322 68.1683 311.72 68.6589 309.282 69.0166C281.064 73.1709 275.022 59.7014 275.022 59.7014C261.645 29.1614 272.774 9.25854 272.774 9.25854Z" fill="#FECD6C"/>
<path d="M272.774 9.25854C272.774 9.25854 283.674 25.1617 296.256 28.2019C293.66 46.0711 303.085 61.2384 309.278 69.0166C281.064 73.1709 275.022 59.7014 275.022 59.7014C261.645 29.1614 272.774 9.25854 272.774 9.25854Z" fill="url(#paint8_linear_39_3391)"/>
<path d="M273.603 21.8096L274.344 23.1037C275.084 24.4003 275.934 25.0987 276.868 25.1821C278.701 25.3452 280.486 23.2403 280.504 23.2185L281.159 22.4367L281.77 23.2536C283.971 26.2032 296.356 35.47 308.926 30.3321C310.576 29.6664 312.267 29.1058 313.987 28.6537C319.651 27.1445 325.715 26.5705 330.271 26.3687C334.067 26.1933 337.87 26.226 341.662 26.4666L342.12 26.5028L342.323 26.9137C344.433 31.1949 347.983 30.6596 348.134 30.6318L348.618 30.5448L348.911 30.9423C351.241 34.0393 353.211 38.7483 354.767 44.9375C355.464 47.6908 356.011 50.4797 356.407 53.2921L356.482 53.8769L355.948 54.1259C353.864 55.0925 352.605 56.574 352.202 58.5231C352.021 59.3938 352.021 60.2925 352.202 61.1633L352.645 62.8272L351.083 62.1022C349.258 61.2564 344.485 60.4371 337.936 60.5132C332.359 60.5773 323.401 61.3144 312.384 64.4537C307.72 65.7829 303.256 66.5212 299.117 66.6468C295.788 66.7483 292.659 66.4571 289.813 65.7804C284.91 64.6132 282.551 62.7064 282.453 62.6254L282.263 62.4696L282.193 62.2351C280.599 56.9377 278.71 54.1391 277.405 52.735C276.075 51.2983 275.081 50.9817 274.988 50.9563L274.526 50.8693L274.405 50.421C272.691 45.1973 270.772 37.4119 271.37 29.9938C271.732 25.4793 272.86 23.227 272.908 23.1376L273.603 21.8096ZM278.169 26.6551C277.702 26.7826 277.216 26.8284 276.733 26.7904C275.66 26.6962 274.7 26.1705 273.866 25.2196C273.547 26.2757 273.161 27.9504 272.986 30.2487C272.688 34.1239 272.949 40.5983 275.832 49.5426C276.373 49.7709 277.322 50.299 278.446 51.4759C280.54 53.6594 282.298 57.0344 283.675 61.5186C284.291 61.9548 286.474 63.3468 290.321 64.2434C293.02 64.8742 296 65.14 299.173 65.0361C303.152 64.9056 307.453 64.1903 311.953 62.907C323.138 59.7193 332.253 58.9702 337.932 58.9049C343.007 58.8457 347.689 59.3278 350.474 60.164C350.448 59.5063 350.502 58.8478 350.633 58.2029C350.963 56.5994 351.949 54.4279 354.742 52.9368C354.564 51.7406 354.082 48.774 353.212 45.3169C351.79 39.6691 349.958 35.174 347.895 32.2751C347.122 32.3024 346.351 32.1987 345.613 31.9682C344.283 31.5562 342.461 30.5412 341.099 28.0495C337.512 27.8461 333.917 27.8251 330.328 27.9867C324.503 28.2453 316.169 29.1213 309.544 31.8305C302.282 34.7982 295.37 33.1899 290.85 31.3169C286.627 29.5684 282.904 26.8931 281.089 24.9404C280.445 25.5241 279.402 26.3264 278.169 26.6551Z" fill="#FF9100"/>
<path d="M306.835 33.2139C309.649 32.4636 312.623 32.5648 315.381 33.5047C318.138 34.4446 320.554 36.1809 322.325 38.4943C324.095 40.8076 325.14 43.5939 325.327 46.5009C325.513 49.4079 324.834 52.3051 323.374 54.826C321.915 57.3469 319.74 59.3783 317.126 60.6635C314.512 61.9486 311.575 62.4296 308.688 62.0458C305.8 61.662 303.091 60.4305 300.903 58.5071C298.716 56.5837 297.147 54.0548 296.397 51.2401C295.394 47.4657 295.93 43.4476 297.887 40.0679C299.844 36.6883 303.062 34.2232 306.835 33.2139ZM314.007 60.1191C316.514 59.4509 318.766 58.0544 320.479 56.1063C322.191 54.1582 323.288 51.7459 323.63 49.1746C323.972 46.6032 323.543 43.9882 322.399 41.6603C321.255 39.3324 319.446 37.3961 317.201 36.0963C314.956 34.7965 312.376 34.1915 309.788 34.3578C307.199 34.5242 304.718 35.4544 302.658 37.0309C300.598 38.6074 299.052 40.7593 298.215 43.2145C297.378 45.6697 297.288 48.318 297.956 50.8245C298.855 54.1835 301.05 57.0487 304.059 58.7912C307.069 60.5337 310.646 61.0113 314.007 60.1191Z" fill="#FF9100"/>
<path d="M319.159 55.9759C323.87 51.265 323.87 43.6271 319.159 38.9162C314.448 34.2053 306.81 34.2053 302.099 38.9162C297.388 43.6271 297.388 51.265 302.099 55.9759C306.81 60.6868 314.448 60.6868 319.159 55.9759Z" fill="#FF9100"/>
<path d="M342.437 47.2494C344.144 46.4729 344.899 44.4591 344.123 42.7514C343.346 41.0437 341.332 40.2887 339.625 41.0652C337.917 41.8416 337.162 43.8554 337.939 45.5632C338.715 47.2709 340.729 48.0258 342.437 47.2494Z" fill="#FF9100"/>
<path d="M287.681 44.5318C288.621 42.9084 288.067 40.8303 286.443 39.8903C284.82 38.9504 282.742 39.5045 281.802 41.128C280.862 42.7514 281.416 44.8295 283.039 45.7694C284.663 46.7094 286.741 46.1553 287.681 44.5318Z" fill="#FF9100"/>
<path d="M310.351 50.4899C310.695 50.8717 310.493 51.1593 310.069 51.2596L308.619 51.5991C308.18 51.7031 308.015 51.517 307.673 51.1351L305.552 48.7945L304.586 49.0217L305.216 51.6982C305.315 52.1236 305.132 52.4232 304.708 52.5211L303.545 52.7942C303.121 52.8945 302.82 52.7108 302.723 52.2855L300.881 44.4118C300.78 43.9865 300.965 43.6868 301.389 43.5889L304.816 42.7806C307.182 42.2235 308.727 43.0706 309.166 44.9254C309.456 46.1579 308.953 47.1886 307.976 47.8677L310.351 50.4899ZM304.2 47.3481L305.758 46.9856C306.394 46.8358 306.815 46.3331 306.654 45.6564C306.494 44.9798 305.885 44.6716 305.246 44.8227L303.689 45.1852L304.2 47.3481Z" fill="white"/>
<path d="M318.894 45.4427C319.384 47.5247 318.289 49.5172 316.235 50.0018C315.601 50.1583 314.934 50.1281 314.316 49.9148L314.875 52.2807C314.971 52.6916 314.801 52.9852 314.391 53.0819L313.216 53.3598C312.806 53.4565 312.522 53.2692 312.425 52.8583L310.412 44.3177C310.315 43.9068 310.486 43.6132 310.895 43.5165L311.589 43.3522C312 43.2555 312.283 43.4428 312.381 43.8537L312.404 43.9528C312.903 43.2501 313.641 42.7525 314.48 42.5523C316.514 42.0713 318.402 43.3462 318.894 45.4427ZM316.477 46.013C316.259 45.0922 315.469 44.5316 314.563 44.7442C313.717 44.9448 313.199 45.7387 313.432 46.7308C313.665 47.7228 314.481 48.2025 315.331 48.002C316.233 47.7881 316.688 46.9338 316.468 46.013H316.477Z" fill="white"/>
<path d="M241.337 335.051L287.062 346.211C287.062 346.211 271.172 359.795 266.364 386.11C264.647 395.514 264.344 406.544 266.687 419.159L221.778 415.28C221.778 415.28 215.068 398.152 222.119 372.79C225.238 361.566 231.054 348.73 241.337 335.051Z" fill="#FECD6C"/>
<path d="M241.337 335.051L287.062 346.211C287.062 346.211 271.172 359.795 266.364 386.111C260.498 379.083 245.884 366.025 222.119 372.79C225.238 361.566 231.053 348.73 241.337 335.051Z" fill="url(#paint9_linear_39_3391)"/>
<path d="M273.336 346.845L273.31 347.277C273.302 348.046 273.421 348.81 273.663 349.539C274.171 351.163 275.269 352.537 276.74 353.392L277.319 353.739L276.836 354.207C276.819 354.223 275.044 355.969 272.702 360.37C268.781 367.726 266.313 376.713 264.933 382.957V382.967C264.925 383.002 264.071 386.528 263.442 391.363C262.865 395.812 262.366 402.311 263.268 408.011L263.389 408.78L262.632 408.593C262.616 408.593 260.873 408.182 259.68 409.209C258.707 410.047 258.315 411.614 258.515 413.868L258.569 414.472L232.005 412.662L231.895 412.335C231.895 412.324 231.445 411.054 230.273 409.575C228.713 407.608 226.586 406.166 224.18 405.445L223.87 405.35L223.823 405.028C223.814 404.978 223.074 399.893 223.088 393.1C223.082 389.324 223.344 385.553 223.872 381.815C224.514 377.432 225.55 373.51 226.95 370.158C232.964 355.76 239.406 345.485 239.471 345.386L239.646 345.107L239.972 345.148C241.197 345.264 242.431 345.209 243.64 344.985C246.205 344.502 248.018 343.314 249.029 341.457L249.218 341.11L273.336 346.845ZM275.679 353.934C274.247 352.932 273.187 351.483 272.666 349.814C272.444 349.114 272.314 348.389 272.279 347.656L249.734 342.293C248.542 344.226 246.5 345.5 243.798 346.004C242.603 346.222 241.385 346.289 240.173 346.203C239.127 347.908 233.34 357.532 227.899 370.555C226.533 373.826 225.521 377.662 224.892 381.954C224.37 385.641 224.111 389.361 224.116 393.085C224.102 396.922 224.329 400.756 224.797 404.564C227.285 405.386 229.479 406.919 231.106 408.974C231.766 409.801 232.315 410.711 232.739 411.68L257.44 413.356C257.334 411.061 257.861 409.4 259.011 408.418C260.058 407.521 261.348 407.433 262.142 407.485C261.36 401.832 261.851 395.559 262.415 391.216C263.039 386.421 263.883 382.894 263.924 382.727C265.043 377.665 266.376 372.983 267.885 368.81C269.094 365.464 270.423 362.435 271.828 359.808C273.572 356.546 274.995 354.722 275.679 353.934Z" fill="#FF9100"/>
<path d="M250.909 361.19C254.764 362.388 258.085 364.885 260.306 368.257C262.526 371.629 263.509 375.666 263.086 379.681C262.664 383.696 260.862 387.44 257.988 390.275C255.115 393.111 251.347 394.862 247.327 395.231C243.306 395.6 239.283 394.564 235.941 392.299C232.599 390.033 230.146 386.68 229 382.809C227.854 378.938 228.086 374.789 229.655 371.07C231.225 367.35 234.036 364.29 237.609 362.411C239.635 361.338 241.854 360.677 244.137 360.468C246.42 360.258 248.722 360.504 250.909 361.19ZM240.863 393.534C244.49 394.661 248.396 394.494 251.914 393.064C255.432 391.634 258.346 389.028 260.158 385.69C261.971 382.352 262.57 378.489 261.853 374.759C261.137 371.029 259.149 367.663 256.229 365.235C253.309 362.806 249.638 361.465 245.84 361.44C242.042 361.415 238.353 362.707 235.401 365.097C232.449 367.487 230.417 370.827 229.652 374.547C228.886 378.267 229.434 382.137 231.202 385.499C232.201 387.41 233.569 389.105 235.228 390.484C236.886 391.863 238.801 392.9 240.863 393.534Z" fill="#FF9100"/>
<path d="M256.474 388.596C262.406 382.664 262.406 373.046 256.474 367.114C250.542 361.182 240.924 361.182 234.992 367.114C229.059 373.046 229.059 382.664 234.992 388.596C240.924 394.529 250.542 394.529 256.474 388.596Z" fill="#FF9100"/>
<path d="M246.101 406.278C248.141 405.205 248.926 402.682 247.853 400.642C246.78 398.602 244.256 397.817 242.216 398.89C240.176 399.963 239.392 402.487 240.465 404.527C241.538 406.567 244.061 407.351 246.101 406.278Z" fill="#FF9100"/>
<path d="M256.687 357.689C258.727 356.617 259.511 354.093 258.438 352.053C257.365 350.013 254.842 349.229 252.801 350.301C250.761 351.374 249.977 353.898 251.05 355.938C252.123 357.978 254.647 358.762 256.687 357.689Z" fill="#FF9100"/>
<path d="M249.429 378.891C249.941 378.705 250.143 379.012 250.073 379.475L249.831 381.03C249.759 381.502 249.511 381.589 248.999 381.775L245.857 382.928L245.696 383.965L248.578 384.411C249.036 384.482 249.255 384.78 249.182 385.238L248.989 386.489C248.919 386.946 248.619 387.165 248.161 387.093L239.685 385.781C239.227 385.71 239.008 385.411 239.081 384.953L239.652 381.264C240.046 378.717 241.494 377.536 243.491 377.844C244.82 378.05 245.63 378.956 245.908 380.186L249.429 378.891ZM243.893 383.686L244.153 382.008C244.26 381.323 243.933 380.711 243.201 380.597C242.469 380.484 241.926 380.96 241.82 381.648L241.561 383.326L243.893 383.686Z" fill="white"/>
<path d="M247.87 368.486C250.112 368.833 251.632 370.707 251.29 372.918C251.193 373.604 250.899 374.247 250.444 374.769L252.99 375.163C253.432 375.232 253.655 375.516 253.586 375.958L253.39 377.223C253.321 377.666 253.027 377.87 252.582 377.801L243.387 376.379C242.945 376.31 242.724 376.026 242.793 375.584L242.913 374.837C242.981 374.395 243.276 374.191 243.721 374.259L243.827 374.276C243.335 373.505 243.14 372.582 243.277 371.677C243.605 369.482 245.613 368.137 247.87 368.486ZM247.467 371.092C246.476 370.94 245.609 371.492 245.458 372.469C245.317 373.383 245.892 374.206 246.959 374.372C248.026 374.537 248.824 373.926 248.965 373.011C249.116 372.035 248.457 371.247 247.471 371.092H247.467Z" fill="white"/>
<path d="M187.144 296.562C182.54 293.039 177.51 290.11 172.226 287.681C164.159 283.975 155.504 281.437 146.884 279.739C115.293 273.513 84.1704 278.544 84.1704 278.544L64.4573 230.022C74.4443 228.969 83.5735 228.563 91.8954 228.651C126.454 229.014 147.117 237.915 157.725 244.492C164.023 248.397 166.771 251.486 166.771 251.486L187.144 296.562Z" fill="#FECD6C"/>
<path d="M146.884 279.739C115.293 273.513 84.1704 278.544 84.1704 278.544L64.4573 230.022C74.4443 228.969 83.5735 228.563 91.8954 228.651C96.1078 236.479 110.145 257.808 146.884 279.739Z" fill="url(#paint10_linear_39_3391)"/>
<path d="M85.7584 267.483L85.5349 266.978L73.3196 239.132L74.447 239.039C77.4787 238.788 79.6514 237.889 80.9044 236.367C81.7042 235.41 82.1118 234.185 82.0451 232.94L81.9364 232.056L82.8269 232.038C95.0966 231.724 106.551 232.221 116.869 233.515C125.136 234.55 132.698 236.098 139.344 238.115C150.735 241.568 155.465 245.169 155.657 245.322L155.778 245.416L155.856 245.548C159.078 250.965 164.453 252.996 164.507 253.015L164.819 253.136L178.132 281.732L176.432 281.224C175.524 280.96 175.148 281.251 175.023 281.345C174.228 281.959 174.095 283.712 174.111 284.278L174.153 285.758L172.886 284.993C166.582 281.186 158.645 278.155 149.299 275.987C141.795 274.247 133.375 273.057 124.271 272.449C108.749 271.412 96.4656 272.449 96.3436 272.458L95.8917 272.496L95.6234 272.134C94.1299 270.103 92.1192 268.7 89.6457 267.961C88.5654 267.628 87.4412 267.458 86.3106 267.458L85.7584 267.483ZM75.6952 240.526L86.8048 265.849C87.9023 265.902 88.9895 266.086 90.0432 266.397C92.6531 267.144 94.9632 268.69 96.6493 270.818C99.0008 270.643 110.376 269.908 124.353 270.84C133.548 271.452 142.058 272.652 149.65 274.415C158.621 276.495 166.326 279.363 172.591 282.95C172.741 281.996 173.114 280.786 174.031 280.074C174.411 279.78 174.862 279.593 175.339 279.533L163.639 254.399C162.553 253.923 161.513 253.348 160.531 252.682C158.81 251.524 156.389 249.519 154.563 246.512C153.782 245.954 148.957 242.697 138.744 239.616C132.182 237.638 124.717 236.112 116.553 235.1C106.566 233.854 95.5014 233.36 83.6546 233.631C83.556 234.996 83.0406 236.298 82.178 237.361C80.8078 239.053 78.6303 240.108 75.6952 240.526Z" fill="#FF9100"/>
<path d="M140.138 267.207C144.975 263.125 143.858 253.844 137.642 246.479C131.427 239.113 122.466 236.451 117.629 240.533C112.791 244.616 113.908 253.896 120.124 261.262C126.34 268.628 135.3 271.29 140.138 267.207Z" fill="#FF9100"/>
<path d="M129.983 256.574C130.345 257.095 130.14 257.306 129.695 257.244L128.186 257.03C127.727 256.964 127.554 256.713 127.189 256.193L124.942 253.006L123.935 252.863L124.625 255.815C124.735 256.283 124.545 256.514 124.102 256.45L122.893 256.278C122.679 256.25 122.48 256.154 122.324 256.004C122.168 255.854 122.064 255.658 122.027 255.446L119.99 246.765C119.88 246.296 120.07 246.066 120.514 246.129L124.096 246.638C126.567 246.988 128.195 248.442 128.673 250.488C128.991 251.846 128.474 252.693 127.465 253.002L129.983 256.574ZM123.504 251.016L125.133 251.248C125.798 251.342 126.232 250.995 126.057 250.246C125.975 249.894 125.79 249.574 125.526 249.326C125.262 249.079 124.93 248.916 124.573 248.858L122.945 248.627L123.504 251.016Z" fill="white"/>
<path d="M138.876 254.772C139.413 257.068 138.282 258.658 136.137 258.354C135.41 258.241 134.721 257.957 134.125 257.526L134.729 260.134C134.835 260.586 134.66 260.818 134.231 260.757L133.002 260.583C132.573 260.522 132.277 260.221 132.168 259.77L129.967 250.355C129.86 249.901 130.036 249.669 130.465 249.731L131.19 249.834C131.619 249.894 131.915 250.196 132.023 250.646L132.049 250.756C132.55 250.272 133.277 250.009 134.209 250.141C136.346 250.443 138.335 252.466 138.876 254.772ZM136.339 254.41C136.097 253.395 135.268 252.521 134.321 252.387C133.432 252.266 132.901 252.87 133.157 253.958C133.413 255.045 134.272 255.851 135.16 255.977C136.114 256.117 136.583 255.428 136.345 254.413L136.339 254.41Z" fill="white"/>
<path d="M124.751 267.46C120.798 264.771 117.581 261.137 115.391 256.888C113.085 252.405 112.313 247.88 113.216 244.145C113.602 242.544 114.281 241.158 115.234 240.025C116.158 238.924 117.342 238.069 118.677 237.537C120.532 236.785 122.741 236.593 125.066 236.981C127.483 237.383 129.943 238.372 132.387 239.917C136.525 242.532 140.068 246.429 142.361 250.889C144.665 255.372 145.438 259.897 144.536 263.632C144.148 265.233 143.469 266.619 142.518 267.753C141.593 268.853 140.409 269.708 139.073 270.241C137.218 270.992 135.009 271.184 132.686 270.797C130.269 270.394 127.809 269.406 125.363 267.86C125.158 267.731 124.954 267.597 124.751 267.46ZM132.548 240.985C132.352 240.854 132.155 240.725 131.957 240.6C129.603 239.112 127.245 238.162 124.934 237.777C122.759 237.415 120.699 237.59 118.982 238.285C116.431 239.319 114.709 241.411 114.002 244.335C112.265 251.518 117.265 261.454 125.205 266.792C125.399 266.924 125.596 267.053 125.796 267.178C128.148 268.665 130.508 269.615 132.819 270C134.994 270.363 137.048 270.188 138.77 269.493C141.321 268.458 143.043 266.367 143.751 263.443C145.486 256.259 140.489 246.325 132.548 240.986V240.985Z" fill="#FF9100"/>
<path d="M105.718 255.155C107.128 253.066 106.267 250.019 103.793 248.35C101.32 246.681 98.1721 247.023 96.7621 249.113C95.3521 251.203 96.2139 254.249 98.6871 255.918C101.16 257.587 104.308 257.245 105.718 255.155Z" fill="#FF9100"/>
<path d="M158.035 261.754C159.067 260.219 158.431 257.984 156.614 256.763C154.797 255.542 152.488 255.796 151.456 257.332C150.424 258.867 151.06 261.101 152.877 262.323C154.693 263.544 157.003 263.289 158.035 261.754Z" fill="#FF9100"/>
<defs>
<linearGradient id="paint0_linear_39_3391" x1="225.459" y1="203.964" x2="216.489" y2="303.28" gradientUnits="userSpaceOnUse">
<stop stop-color="#34C3A0"/>
<stop offset="1" stop-color="#70E0C5"/>
</linearGradient>
<linearGradient id="paint1_linear_39_3391" x1="102.465" y1="83.9588" x2="116.8" y2="199.33" gradientUnits="userSpaceOnUse">
<stop stop-color="#FF9100"/>
<stop offset="1" stop-color="#FECD6C"/>
</linearGradient>
<linearGradient id="paint2_linear_39_3391" x1="279.93" y1="123.621" x2="251.937" y2="-8.21479" gradientUnits="userSpaceOnUse">
<stop stop-color="#56DABB"/>
<stop offset="1" stop-color="#00C493"/>
</linearGradient>
<linearGradient id="paint3_linear_39_3391" x1="352.796" y1="325.885" x2="461.633" y2="384.169" gradientUnits="userSpaceOnUse">
<stop stop-color="#2ECFA7"/>
<stop offset="1" stop-color="#70E0C5"/>
</linearGradient>
<linearGradient id="paint4_linear_39_3391" x1="412.024" y1="86.1916" x2="501.042" y2="234.656" gradientUnits="userSpaceOnUse">
<stop stop-color="#00C493"/>
<stop offset="1" stop-color="#70E0C5"/>
</linearGradient>
<linearGradient id="paint5_linear_39_3391" x1="485.057" y1="210.024" x2="392.155" y2="255.12" gradientUnits="userSpaceOnUse">
<stop stop-color="#FF9100"/>
<stop offset="1" stop-color="#FECD6C"/>
</linearGradient>
<linearGradient id="paint6_linear_39_3391" x1="93.5764" y1="348.269" x2="153.653" y2="453.904" gradientUnits="userSpaceOnUse">
<stop stop-color="#34C3A0"/>
<stop offset="1" stop-color="#70E0C5"/>
</linearGradient>
<linearGradient id="paint7_linear_39_3391" x1="36.9257" y1="35.6486" x2="87.4726" y2="103.23" gradientUnits="userSpaceOnUse">
<stop stop-color="#56DABB"/>
<stop offset="1" stop-color="#00C493"/>
</linearGradient>
<linearGradient id="paint8_linear_39_3391" x1="330.844" y1="50.7632" x2="275.763" y2="37.8035" gradientUnits="userSpaceOnUse">
<stop stop-color="#FF9100"/>
<stop offset="1" stop-color="#FECD6C"/>
</linearGradient>
<linearGradient id="paint9_linear_39_3391" x1="238.855" y1="403.832" x2="260.721" y2="341.683" gradientUnits="userSpaceOnUse">
<stop stop-color="#FF9100"/>
<stop offset="1" stop-color="#FECD6C"/>
</linearGradient>
<linearGradient id="paint10_linear_39_3391" x1="139.822" y1="229.123" x2="91.0833" y2="265.893" gradientUnits="userSpaceOnUse">
<stop stop-color="#FF9100"/>
<stop offset="1" stop-color="#FECD6C"/>
</linearGradient>
</defs>
</svg>
